ISO-10303-21;
HEADER;
FILE_DESCRIPTION(('FreeCAD Model'),'2;1');
FILE_NAME('Open CASCADE Shape Model','2025-02-23T17:05:21',('Author'),(
    ''),'Open CASCADE STEP processor 7.8','FreeCAD','Unknown');
FILE_SCHEMA(('AUTOMOTIVE_DESIGN { 1 0 10303 214 1 1 1 1 }'));
ENDSEC;
DATA;
#1 = APPLICATION_PROTOCOL_DEFINITION('international standard',
  'automotive_design',2000,#2);
#2 = APPLICATION_CONTEXT(
  'core data for automotive mechanical design processes');
#3 = SHAPE_DEFINITION_REPRESENTATION(#4,#10);
#4 = PRODUCT_DEFINITION_SHAPE('','',#5);
#5 = PRODUCT_DEFINITION('design','',#6,#9);
#6 = PRODUCT_DEFINITION_FORMATION('','',#7);
#7 = PRODUCT('FJ08K-S','FJ08K-S','',(#8));
#8 = PRODUCT_CONTEXT('',#2,'mechanical');
#9 = PRODUCT_DEFINITION_CONTEXT('part definition',#2,'design');
#10 = SHAPE_REPRESENTATION('',(#11,#15),#19);
#11 = AXIS2_PLACEMENT_3D('',#12,#13,#14);
#12 = CARTESIAN_POINT('',(0.,0.,0.));
#13 = DIRECTION('',(0.,0.,1.));
#14 = DIRECTION('',(1.,0.,-0.));
#15 = AXIS2_PLACEMENT_3D('',#16,#17,#18);
#16 = CARTESIAN_POINT('',(0.,0.,0.));
#17 = DIRECTION('',(0.,0.,1.));
#18 = DIRECTION('',(1.,0.,0.));
#19 = ( GEOMETRIC_REPRESENTATION_CONTEXT(3) 
GLOBAL_UNCERTAINTY_ASSIGNED_CONTEXT((#23)) GLOBAL_UNIT_ASSIGNED_CONTEXT(
(#20,#21,#22)) REPRESENTATION_CONTEXT('Context #1',
  '3D Context with UNIT and UNCERTAINTY') );
#20 = ( LENGTH_UNIT() NAMED_UNIT(*) SI_UNIT(.MILLI.,.METRE.) );
#21 = ( NAMED_UNIT(*) PLANE_ANGLE_UNIT() SI_UNIT($,.RADIAN.) );
#22 = ( NAMED_UNIT(*) SI_UNIT($,.STERADIAN.) SOLID_ANGLE_UNIT() );
#23 = UNCERTAINTY_MEASURE_WITH_UNIT(LENGTH_MEASURE(5.E-06),#20,
  'distance_accuracy_value','confusion accuracy');
#24 = PRODUCT_RELATED_PRODUCT_CATEGORY('part',$,(#7));
#25 = SHAPE_DEFINITION_REPRESENTATION(#26,#32);
#26 = PRODUCT_DEFINITION_SHAPE('','',#27);
#27 = PRODUCT_DEFINITION('design','',#28,#31);
#28 = PRODUCT_DEFINITION_FORMATION('','',#29);
#29 = PRODUCT('Body003','Body003','',(#30));
#30 = PRODUCT_CONTEXT('',#2,'mechanical');
#31 = PRODUCT_DEFINITION_CONTEXT('part definition',#2,'design');
#32 = ADVANCED_BREP_SHAPE_REPRESENTATION('',(#11,#33),#2416);
#33 = MANIFOLD_SOLID_BREP('',#34);
#34 = CLOSED_SHELL('',(#35,#139,#462,#502,#526,#559,#599,#623,#656,#749,
    #816,#902,#919,#936,#976,#1000,#1033,#1073,#1097,#1130,#1170,#1194,
    #1227,#1244,#1261,#1278,#1295,#1307,#1347,#1371,#1404,#1444,#1468,
    #1501,#1541,#1565,#1598,#1623,#1648,#1665,#1677,#1694,#1706,#1723,
    #1740,#1757,#1782,#1799,#1816,#1833,#1850,#1862,#1879,#1891,#1908,
    #1920,#1937,#1949,#1966,#1978,#1995,#2007,#2016,#2025,#2070,#2102,
    #2126,#2151,#2168,#2191,#2216,#2261,#2293,#2317,#2341,#2359,#2382,
    #2407));
#35 = ADVANCED_FACE('',(#36),#134,.T.);
#36 = FACE_BOUND('',#37,.T.);
#37 = EDGE_LOOP('',(#38,#48,#56,#64,#72,#80,#88,#96,#104,#112,#120,#128)
  );
#38 = ORIENTED_EDGE('',*,*,#39,.F.);
#39 = EDGE_CURVE('',#40,#42,#44,.T.);
#40 = VERTEX_POINT('',#41);
#41 = CARTESIAN_POINT('',(-8.75,6.,0.));
#42 = VERTEX_POINT('',#43);
#43 = CARTESIAN_POINT('',(-8.282842712475,6.467157287525,0.));
#44 = LINE('',#45,#46);
#45 = CARTESIAN_POINT('',(-8.75,6.,0.));
#46 = VECTOR('',#47,1.);
#47 = DIRECTION('',(0.707106781187,0.707106781187,0.));
#48 = ORIENTED_EDGE('',*,*,#49,.T.);
#49 = EDGE_CURVE('',#40,#50,#52,.T.);
#50 = VERTEX_POINT('',#51);
#51 = CARTESIAN_POINT('',(-8.75,6.,5.4));
#52 = LINE('',#53,#54);
#53 = CARTESIAN_POINT('',(-8.75,6.,0.));
#54 = VECTOR('',#55,1.);
#55 = DIRECTION('',(0.,0.,1.));
#56 = ORIENTED_EDGE('',*,*,#57,.T.);
#57 = EDGE_CURVE('',#50,#58,#60,.T.);
#58 = VERTEX_POINT('',#59);
#59 = CARTESIAN_POINT('',(-6.,8.75,5.4));
#60 = LINE('',#61,#62);
#61 = CARTESIAN_POINT('',(-8.75,6.,5.4));
#62 = VECTOR('',#63,1.);
#63 = DIRECTION('',(0.707106781187,0.707106781187,0.));
#64 = ORIENTED_EDGE('',*,*,#65,.F.);
#65 = EDGE_CURVE('',#66,#58,#68,.T.);
#66 = VERTEX_POINT('',#67);
#67 = CARTESIAN_POINT('',(-6.,8.75,0.));
#68 = LINE('',#69,#70);
#69 = CARTESIAN_POINT('',(-6.,8.75,0.));
#70 = VECTOR('',#71,1.);
#71 = DIRECTION('',(0.,0.,1.));
#72 = ORIENTED_EDGE('',*,*,#73,.F.);
#73 = EDGE_CURVE('',#74,#66,#76,.T.);
#74 = VERTEX_POINT('',#75);
#75 = CARTESIAN_POINT('',(-6.317157287525,8.432842712475,0.));
#76 = LINE('',#77,#78);
#77 = CARTESIAN_POINT('',(-8.75,6.,0.));
#78 = VECTOR('',#79,1.);
#79 = DIRECTION('',(0.707106781187,0.707106781187,0.));
#80 = ORIENTED_EDGE('',*,*,#81,.T.);
#81 = EDGE_CURVE('',#74,#82,#84,.T.);
#82 = VERTEX_POINT('',#83);
#83 = CARTESIAN_POINT('',(-6.317157287525,8.432842712475,0.1));
#84 = LINE('',#85,#86);
#85 = CARTESIAN_POINT('',(-6.317157287525,8.432842712475,-1.75));
#86 = VECTOR('',#87,1.);
#87 = DIRECTION('',(0.,0.,1.));
#88 = ORIENTED_EDGE('',*,*,#89,.F.);
#89 = EDGE_CURVE('',#90,#82,#92,.T.);
#90 = VERTEX_POINT('',#91);
#91 = CARTESIAN_POINT('',(-6.882842712475,7.867157287525,0.1));
#92 = LINE('',#93,#94);
#93 = CARTESIAN_POINT('',(-8.053125,6.696875,0.1));
#94 = VECTOR('',#95,1.);
#95 = DIRECTION('',(0.707106781187,0.707106781187,0.));
#96 = ORIENTED_EDGE('',*,*,#97,.T.);
#97 = EDGE_CURVE('',#90,#98,#100,.T.);
#98 = VERTEX_POINT('',#99);
#99 = CARTESIAN_POINT('',(-6.882842712475,7.867157287525,0.));
#100 = LINE('',#101,#102);
#101 = CARTESIAN_POINT('',(-6.882842712475,7.867157287525,-1.75));
#102 = VECTOR('',#103,1.);
#103 = DIRECTION('',(0.,0.,-1.));
#104 = ORIENTED_EDGE('',*,*,#105,.F.);
#105 = EDGE_CURVE('',#106,#98,#108,.T.);
#106 = VERTEX_POINT('',#107);
#107 = CARTESIAN_POINT('',(-7.717157287525,7.032842712475,0.));
#108 = LINE('',#109,#110);
#109 = CARTESIAN_POINT('',(-8.75,6.,0.));
#110 = VECTOR('',#111,1.);
#111 = DIRECTION('',(0.707106781187,0.707106781187,0.));
#112 = ORIENTED_EDGE('',*,*,#113,.T.);
#113 = EDGE_CURVE('',#106,#114,#116,.T.);
#114 = VERTEX_POINT('',#115);
#115 = CARTESIAN_POINT('',(-7.717157287525,7.032842712475,0.1));
#116 = LINE('',#117,#118);
#117 = CARTESIAN_POINT('',(-7.717157287525,7.032842712475,-1.75));
#118 = VECTOR('',#119,1.);
#119 = DIRECTION('',(0.,0.,1.));
#120 = ORIENTED_EDGE('',*,*,#121,.F.);
#121 = EDGE_CURVE('',#122,#114,#124,.T.);
#122 = VERTEX_POINT('',#123);
#123 = CARTESIAN_POINT('',(-8.282842712475,6.467157287525,0.1));
#124 = LINE('',#125,#126);
#125 = CARTESIAN_POINT('',(-8.053125,6.696875,0.1));
#126 = VECTOR('',#127,1.);
#127 = DIRECTION('',(0.707106781187,0.707106781187,0.));
#128 = ORIENTED_EDGE('',*,*,#129,.T.);
#129 = EDGE_CURVE('',#122,#42,#130,.T.);
#130 = LINE('',#131,#132);
#131 = CARTESIAN_POINT('',(-8.282842712475,6.467157287525,-1.75));
#132 = VECTOR('',#133,1.);
#133 = DIRECTION('',(0.,0.,-1.));
#134 = PLANE('',#135);
#135 = AXIS2_PLACEMENT_3D('',#136,#137,#138);
#136 = CARTESIAN_POINT('',(-8.75,6.,0.));
#137 = DIRECTION('',(-0.707106781187,0.707106781187,0.));
#138 = DIRECTION('',(0.707106781187,0.707106781187,0.));
#139 = ADVANCED_FACE('',(#140,#435,#446),#457,.F.);
#140 = FACE_BOUND('',#141,.F.);
#141 = EDGE_LOOP('',(#142,#143,#151,#159,#167,#175,#183,#191,#199,#207,
    #215,#223,#231,#239,#247,#255,#263,#271,#279,#287,#295,#303,#311,
    #319,#327,#335,#343,#351,#359,#367,#375,#383,#389,#390,#398,#406,
    #412,#413,#421,#429));
#142 = ORIENTED_EDGE('',*,*,#39,.F.);
#143 = ORIENTED_EDGE('',*,*,#144,.F.);
#144 = EDGE_CURVE('',#145,#40,#147,.T.);
#145 = VERTEX_POINT('',#146);
#146 = CARTESIAN_POINT('',(-8.75,2.4,0.));
#147 = LINE('',#148,#149);
#148 = CARTESIAN_POINT('',(-8.75,-6.,0.));
#149 = VECTOR('',#150,1.);
#150 = DIRECTION('',(0.,1.,0.));
#151 = ORIENTED_EDGE('',*,*,#152,.T.);
#152 = EDGE_CURVE('',#145,#153,#155,.T.);
#153 = VERTEX_POINT('',#154);
#154 = CARTESIAN_POINT('',(-8.7,2.4,0.));
#155 = LINE('',#156,#157);
#156 = CARTESIAN_POINT('',(-4.35,2.4,0.));
#157 = VECTOR('',#158,1.);
#158 = DIRECTION('',(1.,0.,0.));
#159 = ORIENTED_EDGE('',*,*,#160,.T.);
#160 = EDGE_CURVE('',#153,#161,#163,.T.);
#161 = VERTEX_POINT('',#162);
#162 = CARTESIAN_POINT('',(-8.7,1.6,0.));
#163 = LINE('',#164,#165);
#164 = CARTESIAN_POINT('',(-8.7,0.8,0.));
#165 = VECTOR('',#166,1.);
#166 = DIRECTION('',(0.,-1.,0.));
#167 = ORIENTED_EDGE('',*,*,#168,.T.);
#168 = EDGE_CURVE('',#161,#169,#171,.T.);
#169 = VERTEX_POINT('',#170);
#170 = CARTESIAN_POINT('',(-8.75,1.6,0.));
#171 = LINE('',#172,#173);
#172 = CARTESIAN_POINT('',(-4.4,1.6,0.));
#173 = VECTOR('',#174,1.);
#174 = DIRECTION('',(-1.,0.,0.));
#175 = ORIENTED_EDGE('',*,*,#176,.F.);
#176 = EDGE_CURVE('',#177,#169,#179,.T.);
#177 = VERTEX_POINT('',#178);
#178 = CARTESIAN_POINT('',(-8.75,0.4,0.));
#179 = LINE('',#180,#181);
#180 = CARTESIAN_POINT('',(-8.75,-6.,0.));
#181 = VECTOR('',#182,1.);
#182 = DIRECTION('',(0.,1.,0.));
#183 = ORIENTED_EDGE('',*,*,#184,.T.);
#184 = EDGE_CURVE('',#177,#185,#187,.T.);
#185 = VERTEX_POINT('',#186);
#186 = CARTESIAN_POINT('',(-8.7,0.4,0.));
#187 = LINE('',#188,#189);
#188 = CARTESIAN_POINT('',(-4.35,0.4,0.));
#189 = VECTOR('',#190,1.);
#190 = DIRECTION('',(1.,0.,0.));
#191 = ORIENTED_EDGE('',*,*,#192,.T.);
#192 = EDGE_CURVE('',#185,#193,#195,.T.);
#193 = VERTEX_POINT('',#194);
#194 = CARTESIAN_POINT('',(-8.7,-0.4,0.));
#195 = LINE('',#196,#197);
#196 = CARTESIAN_POINT('',(-8.7,-0.2,0.));
#197 = VECTOR('',#198,1.);
#198 = DIRECTION('',(0.,-1.,0.));
#199 = ORIENTED_EDGE('',*,*,#200,.T.);
#200 = EDGE_CURVE('',#193,#201,#203,.T.);
#201 = VERTEX_POINT('',#202);
#202 = CARTESIAN_POINT('',(-8.75,-0.4,0.));
#203 = LINE('',#204,#205);
#204 = CARTESIAN_POINT('',(-4.4,-0.4,0.));
#205 = VECTOR('',#206,1.);
#206 = DIRECTION('',(-1.,0.,0.));
#207 = ORIENTED_EDGE('',*,*,#208,.F.);
#208 = EDGE_CURVE('',#209,#201,#211,.T.);
#209 = VERTEX_POINT('',#210);
#210 = CARTESIAN_POINT('',(-8.75,-1.6,0.));
#211 = LINE('',#212,#213);
#212 = CARTESIAN_POINT('',(-8.75,-6.,0.));
#213 = VECTOR('',#214,1.);
#214 = DIRECTION('',(0.,1.,0.));
#215 = ORIENTED_EDGE('',*,*,#216,.T.);
#216 = EDGE_CURVE('',#209,#217,#219,.T.);
#217 = VERTEX_POINT('',#218);
#218 = CARTESIAN_POINT('',(-8.7,-1.6,0.));
#219 = LINE('',#220,#221);
#220 = CARTESIAN_POINT('',(-4.35,-1.6,0.));
#221 = VECTOR('',#222,1.);
#222 = DIRECTION('',(1.,0.,0.));
#223 = ORIENTED_EDGE('',*,*,#224,.T.);
#224 = EDGE_CURVE('',#217,#225,#227,.T.);
#225 = VERTEX_POINT('',#226);
#226 = CARTESIAN_POINT('',(-8.7,-2.4,0.));
#227 = LINE('',#228,#229);
#228 = CARTESIAN_POINT('',(-8.7,-1.2,0.));
#229 = VECTOR('',#230,1.);
#230 = DIRECTION('',(0.,-1.,0.));
#231 = ORIENTED_EDGE('',*,*,#232,.T.);
#232 = EDGE_CURVE('',#225,#233,#235,.T.);
#233 = VERTEX_POINT('',#234);
#234 = CARTESIAN_POINT('',(-8.75,-2.4,0.));
#235 = LINE('',#236,#237);
#236 = CARTESIAN_POINT('',(-4.4,-2.4,0.));
#237 = VECTOR('',#238,1.);
#238 = DIRECTION('',(-1.,0.,0.));
#239 = ORIENTED_EDGE('',*,*,#240,.F.);
#240 = EDGE_CURVE('',#241,#233,#243,.T.);
#241 = VERTEX_POINT('',#242);
#242 = CARTESIAN_POINT('',(-8.75,-6.,0.));
#243 = LINE('',#244,#245);
#244 = CARTESIAN_POINT('',(-8.75,-6.,0.));
#245 = VECTOR('',#246,1.);
#246 = DIRECTION('',(0.,1.,0.));
#247 = ORIENTED_EDGE('',*,*,#248,.F.);
#248 = EDGE_CURVE('',#249,#241,#251,.T.);
#249 = VERTEX_POINT('',#250);
#250 = CARTESIAN_POINT('',(-6.,-8.75,0.));
#251 = LINE('',#252,#253);
#252 = CARTESIAN_POINT('',(-6.,-8.75,0.));
#253 = VECTOR('',#254,1.);
#254 = DIRECTION('',(-0.707106781187,0.707106781187,0.));
#255 = ORIENTED_EDGE('',*,*,#256,.F.);
#256 = EDGE_CURVE('',#257,#249,#259,.T.);
#257 = VERTEX_POINT('',#258);
#258 = CARTESIAN_POINT('',(6.,-8.75,0.));
#259 = LINE('',#260,#261);
#260 = CARTESIAN_POINT('',(6.,-8.75,0.));
#261 = VECTOR('',#262,1.);
#262 = DIRECTION('',(-1.,0.,0.));
#263 = ORIENTED_EDGE('',*,*,#264,.F.);
#264 = EDGE_CURVE('',#265,#257,#267,.T.);
#265 = VERTEX_POINT('',#266);
#266 = CARTESIAN_POINT('',(8.75,-6.,0.));
#267 = LINE('',#268,#269);
#268 = CARTESIAN_POINT('',(8.75,-6.,0.));
#269 = VECTOR('',#270,1.);
#270 = DIRECTION('',(-0.707106781187,-0.707106781187,0.));
#271 = ORIENTED_EDGE('',*,*,#272,.F.);
#272 = EDGE_CURVE('',#273,#265,#275,.T.);
#273 = VERTEX_POINT('',#274);
#274 = CARTESIAN_POINT('',(8.75,6.,0.));
#275 = LINE('',#276,#277);
#276 = CARTESIAN_POINT('',(8.75,6.,0.));
#277 = VECTOR('',#278,1.);
#278 = DIRECTION('',(0.,-1.,0.));
#279 = ORIENTED_EDGE('',*,*,#280,.F.);
#280 = EDGE_CURVE('',#281,#273,#283,.T.);
#281 = VERTEX_POINT('',#282);
#282 = CARTESIAN_POINT('',(6.,8.75,0.));
#283 = LINE('',#284,#285);
#284 = CARTESIAN_POINT('',(6.,8.75,0.));
#285 = VECTOR('',#286,1.);
#286 = DIRECTION('',(0.707106781187,-0.707106781187,0.));
#287 = ORIENTED_EDGE('',*,*,#288,.F.);
#288 = EDGE_CURVE('',#289,#281,#291,.T.);
#289 = VERTEX_POINT('',#290);
#290 = CARTESIAN_POINT('',(2.4,8.75,0.));
#291 = LINE('',#292,#293);
#292 = CARTESIAN_POINT('',(-6.,8.75,0.));
#293 = VECTOR('',#294,1.);
#294 = DIRECTION('',(1.,0.,0.));
#295 = ORIENTED_EDGE('',*,*,#296,.T.);
#296 = EDGE_CURVE('',#289,#297,#299,.T.);
#297 = VERTEX_POINT('',#298);
#298 = CARTESIAN_POINT('',(2.4,8.7,0.));
#299 = LINE('',#300,#301);
#300 = CARTESIAN_POINT('',(2.4,4.35,0.));
#301 = VECTOR('',#302,1.);
#302 = DIRECTION('',(0.,-1.,0.));
#303 = ORIENTED_EDGE('',*,*,#304,.T.);
#304 = EDGE_CURVE('',#297,#305,#307,.T.);
#305 = VERTEX_POINT('',#306);
#306 = CARTESIAN_POINT('',(1.6,8.7,0.));
#307 = LINE('',#308,#309);
#308 = CARTESIAN_POINT('',(0.8,8.7,0.));
#309 = VECTOR('',#310,1.);
#310 = DIRECTION('',(-1.,0.,0.));
#311 = ORIENTED_EDGE('',*,*,#312,.T.);
#312 = EDGE_CURVE('',#305,#313,#315,.T.);
#313 = VERTEX_POINT('',#314);
#314 = CARTESIAN_POINT('',(1.6,8.75,0.));
#315 = LINE('',#316,#317);
#316 = CARTESIAN_POINT('',(1.6,4.4,0.));
#317 = VECTOR('',#318,1.);
#318 = DIRECTION('',(0.,1.,0.));
#319 = ORIENTED_EDGE('',*,*,#320,.F.);
#320 = EDGE_CURVE('',#321,#313,#323,.T.);
#321 = VERTEX_POINT('',#322);
#322 = CARTESIAN_POINT('',(0.4,8.75,0.));
#323 = LINE('',#324,#325);
#324 = CARTESIAN_POINT('',(-6.,8.75,0.));
#325 = VECTOR('',#326,1.);
#326 = DIRECTION('',(1.,0.,0.));
#327 = ORIENTED_EDGE('',*,*,#328,.T.);
#328 = EDGE_CURVE('',#321,#329,#331,.T.);
#329 = VERTEX_POINT('',#330);
#330 = CARTESIAN_POINT('',(0.4,8.7,0.));
#331 = LINE('',#332,#333);
#332 = CARTESIAN_POINT('',(0.4,4.35,0.));
#333 = VECTOR('',#334,1.);
#334 = DIRECTION('',(0.,-1.,0.));
#335 = ORIENTED_EDGE('',*,*,#336,.T.);
#336 = EDGE_CURVE('',#329,#337,#339,.T.);
#337 = VERTEX_POINT('',#338);
#338 = CARTESIAN_POINT('',(-0.4,8.7,0.));
#339 = LINE('',#340,#341);
#340 = CARTESIAN_POINT('',(-0.2,8.7,0.));
#341 = VECTOR('',#342,1.);
#342 = DIRECTION('',(-1.,0.,0.));
#343 = ORIENTED_EDGE('',*,*,#344,.T.);
#344 = EDGE_CURVE('',#337,#345,#347,.T.);
#345 = VERTEX_POINT('',#346);
#346 = CARTESIAN_POINT('',(-0.4,8.75,0.));
#347 = LINE('',#348,#349);
#348 = CARTESIAN_POINT('',(-0.4,4.4,0.));
#349 = VECTOR('',#350,1.);
#350 = DIRECTION('',(0.,1.,0.));
#351 = ORIENTED_EDGE('',*,*,#352,.F.);
#352 = EDGE_CURVE('',#353,#345,#355,.T.);
#353 = VERTEX_POINT('',#354);
#354 = CARTESIAN_POINT('',(-1.6,8.75,0.));
#355 = LINE('',#356,#357);
#356 = CARTESIAN_POINT('',(-6.,8.75,0.));
#357 = VECTOR('',#358,1.);
#358 = DIRECTION('',(1.,0.,0.));
#359 = ORIENTED_EDGE('',*,*,#360,.T.);
#360 = EDGE_CURVE('',#353,#361,#363,.T.);
#361 = VERTEX_POINT('',#362);
#362 = CARTESIAN_POINT('',(-1.6,8.7,0.));
#363 = LINE('',#364,#365);
#364 = CARTESIAN_POINT('',(-1.6,4.35,0.));
#365 = VECTOR('',#366,1.);
#366 = DIRECTION('',(0.,-1.,0.));
#367 = ORIENTED_EDGE('',*,*,#368,.T.);
#368 = EDGE_CURVE('',#361,#369,#371,.T.);
#369 = VERTEX_POINT('',#370);
#370 = CARTESIAN_POINT('',(-2.4,8.7,0.));
#371 = LINE('',#372,#373);
#372 = CARTESIAN_POINT('',(-1.2,8.7,0.));
#373 = VECTOR('',#374,1.);
#374 = DIRECTION('',(-1.,0.,0.));
#375 = ORIENTED_EDGE('',*,*,#376,.T.);
#376 = EDGE_CURVE('',#369,#377,#379,.T.);
#377 = VERTEX_POINT('',#378);
#378 = CARTESIAN_POINT('',(-2.4,8.75,0.));
#379 = LINE('',#380,#381);
#380 = CARTESIAN_POINT('',(-2.4,4.4,0.));
#381 = VECTOR('',#382,1.);
#382 = DIRECTION('',(0.,1.,0.));
#383 = ORIENTED_EDGE('',*,*,#384,.F.);
#384 = EDGE_CURVE('',#66,#377,#385,.T.);
#385 = LINE('',#386,#387);
#386 = CARTESIAN_POINT('',(-6.,8.75,0.));
#387 = VECTOR('',#388,1.);
#388 = DIRECTION('',(1.,0.,0.));
#389 = ORIENTED_EDGE('',*,*,#73,.F.);
#390 = ORIENTED_EDGE('',*,*,#391,.T.);
#391 = EDGE_CURVE('',#74,#392,#394,.T.);
#392 = VERTEX_POINT('',#393);
#393 = CARTESIAN_POINT('',(-6.281801948466,8.397487373415,0.));
#394 = LINE('',#395,#396);
#395 = CARTESIAN_POINT('',(-2.611979617996,4.727665042945,4.4E-16));
#396 = VECTOR('',#397,1.);
#397 = DIRECTION('',(0.707106781187,-0.707106781187,0.));
#398 = ORIENTED_EDGE('',*,*,#399,.T.);
#399 = EDGE_CURVE('',#392,#400,#402,.T.);
#400 = VERTEX_POINT('',#401);
#401 = CARTESIAN_POINT('',(-6.847487373415,7.831801948466,0.));
#402 = LINE('',#403,#404);
#403 = CARTESIAN_POINT('',(-7.093566017178,7.585723304703,4.4E-16));
#404 = VECTOR('',#405,1.);
#405 = DIRECTION('',(-0.707106781187,-0.707106781187,0.));
#406 = ORIENTED_EDGE('',*,*,#407,.T.);
#407 = EDGE_CURVE('',#400,#98,#408,.T.);
#408 = LINE('',#409,#410);
#409 = CARTESIAN_POINT('',(-3.213020382004,4.197334957055,0.));
#410 = VECTOR('',#411,1.);
#411 = DIRECTION('',(-0.707106781187,0.707106781187,0.));
#412 = ORIENTED_EDGE('',*,*,#105,.F.);
#413 = ORIENTED_EDGE('',*,*,#414,.T.);
#414 = EDGE_CURVE('',#106,#415,#417,.T.);
#415 = VERTEX_POINT('',#416);
#416 = CARTESIAN_POINT('',(-7.681801948466,6.997487373415,0.));
#417 = LINE('',#418,#419);
#418 = CARTESIAN_POINT('',(-4.011979617996,3.327665042945,4.4E-16));
#419 = VECTOR('',#420,1.);
#420 = DIRECTION('',(0.707106781187,-0.707106781187,0.));
#421 = ORIENTED_EDGE('',*,*,#422,.T.);
#422 = EDGE_CURVE('',#415,#423,#425,.T.);
#423 = VERTEX_POINT('',#424);
#424 = CARTESIAN_POINT('',(-8.247487373415,6.431801948466,0.));
#425 = LINE('',#426,#427);
#426 = CARTESIAN_POINT('',(-7.793566017178,6.885723304703,4.4E-16));
#427 = VECTOR('',#428,1.);
#428 = DIRECTION('',(-0.707106781187,-0.707106781187,0.));
#429 = ORIENTED_EDGE('',*,*,#430,.T.);
#430 = EDGE_CURVE('',#423,#42,#431,.T.);
#431 = LINE('',#432,#433);
#432 = CARTESIAN_POINT('',(-4.613020382004,2.797334957055,4.4E-16));
#433 = VECTOR('',#434,1.);
#434 = DIRECTION('',(-0.707106781187,0.707106781187,0.));
#435 = FACE_BOUND('',#436,.F.);
#436 = EDGE_LOOP('',(#437));
#437 = ORIENTED_EDGE('',*,*,#438,.T.);
#438 = EDGE_CURVE('',#439,#439,#441,.T.);
#439 = VERTEX_POINT('',#440);
#440 = CARTESIAN_POINT('',(-5.3,-6.,0.));
#441 = CIRCLE('',#442,0.7);
#442 = AXIS2_PLACEMENT_3D('',#443,#444,#445);
#443 = CARTESIAN_POINT('',(-6.,-6.,0.));
#444 = DIRECTION('',(0.,0.,-1.));
#445 = DIRECTION('',(1.,0.,0.));
#446 = FACE_BOUND('',#447,.F.);
#447 = EDGE_LOOP('',(#448));
#448 = ORIENTED_EDGE('',*,*,#449,.T.);
#449 = EDGE_CURVE('',#450,#450,#452,.T.);
#450 = VERTEX_POINT('',#451);
#451 = CARTESIAN_POINT('',(6.7,6.,0.));
#452 = CIRCLE('',#453,0.7);
#453 = AXIS2_PLACEMENT_3D('',#454,#455,#456);
#454 = CARTESIAN_POINT('',(6.,6.,0.));
#455 = DIRECTION('',(0.,0.,-1.));
#456 = DIRECTION('',(1.,0.,0.));
#457 = PLANE('',#458);
#458 = AXIS2_PLACEMENT_3D('',#459,#460,#461);
#459 = CARTESIAN_POINT('',(4.5E-16,3.4E-16,0.));
#460 = DIRECTION('',(0.,0.,1.));
#461 = DIRECTION('',(1.,0.,0.));
#462 = ADVANCED_FACE('',(#463),#497,.F.);
#463 = FACE_BOUND('',#464,.F.);
#464 = EDGE_LOOP('',(#465,#475,#483,#489,#490,#491));
#465 = ORIENTED_EDGE('',*,*,#466,.F.);
#466 = EDGE_CURVE('',#467,#469,#471,.T.);
#467 = VERTEX_POINT('',#468);
#468 = CARTESIAN_POINT('',(-8.318198051534,6.502512626585,-3.5));
#469 = VERTEX_POINT('',#470);
#470 = CARTESIAN_POINT('',(-8.247487373415,6.431801948466,-3.5));
#471 = LINE('',#472,#473);
#472 = CARTESIAN_POINT('',(-8.318198051534,6.502512626585,-3.5));
#473 = VECTOR('',#474,1.);
#474 = DIRECTION('',(0.707106781187,-0.707106781187,0.));
#475 = ORIENTED_EDGE('',*,*,#476,.T.);
#476 = EDGE_CURVE('',#467,#477,#479,.T.);
#477 = VERTEX_POINT('',#478);
#478 = CARTESIAN_POINT('',(-8.318198051534,6.502512626585,0.1));
#479 = LINE('',#480,#481);
#480 = CARTESIAN_POINT('',(-8.318198051534,6.502512626585,-3.5));
#481 = VECTOR('',#482,1.);
#482 = DIRECTION('',(0.,0.,1.));
#483 = ORIENTED_EDGE('',*,*,#484,.T.);
#484 = EDGE_CURVE('',#477,#122,#485,.T.);
#485 = LINE('',#486,#487);
#486 = CARTESIAN_POINT('',(-8.318198051534,6.502512626585,0.1));
#487 = VECTOR('',#488,1.);
#488 = DIRECTION('',(0.707106781187,-0.707106781187,0.));
#489 = ORIENTED_EDGE('',*,*,#129,.T.);
#490 = ORIENTED_EDGE('',*,*,#430,.F.);
#491 = ORIENTED_EDGE('',*,*,#492,.F.);
#492 = EDGE_CURVE('',#469,#423,#493,.T.);
#493 = LINE('',#494,#495);
#494 = CARTESIAN_POINT('',(-8.247487373415,6.431801948466,-3.5));
#495 = VECTOR('',#496,1.);
#496 = DIRECTION('',(0.,0.,1.));
#497 = PLANE('',#498);
#498 = AXIS2_PLACEMENT_3D('',#499,#500,#501);
#499 = CARTESIAN_POINT('',(-8.318198051534,6.502512626585,-3.5));
#500 = DIRECTION('',(0.707106781187,0.707106781187,0.));
#501 = DIRECTION('',(0.707106781187,-0.707106781187,0.));
#502 = ADVANCED_FACE('',(#503),#521,.T.);
#503 = FACE_BOUND('',#504,.T.);
#504 = EDGE_LOOP('',(#505,#513,#514,#515));
#505 = ORIENTED_EDGE('',*,*,#506,.T.);
#506 = EDGE_CURVE('',#507,#477,#509,.T.);
#507 = VERTEX_POINT('',#508);
#508 = CARTESIAN_POINT('',(-7.752512626585,7.068198051534,0.1));
#509 = LINE('',#510,#511);
#510 = CARTESIAN_POINT('',(-7.752512626585,7.068198051534,0.1));
#511 = VECTOR('',#512,1.);
#512 = DIRECTION('',(-0.707106781187,-0.707106781187,0.));
#513 = ORIENTED_EDGE('',*,*,#484,.T.);
#514 = ORIENTED_EDGE('',*,*,#121,.T.);
#515 = ORIENTED_EDGE('',*,*,#516,.T.);
#516 = EDGE_CURVE('',#114,#507,#517,.T.);
#517 = LINE('',#518,#519);
#518 = CARTESIAN_POINT('',(-7.681801948466,6.997487373415,0.1));
#519 = VECTOR('',#520,1.);
#520 = DIRECTION('',(-0.707106781187,0.707106781187,0.));
#521 = PLANE('',#522);
#522 = AXIS2_PLACEMENT_3D('',#523,#524,#525);
#523 = CARTESIAN_POINT('',(-5.10625,5.14375,0.1));
#524 = DIRECTION('',(0.,0.,1.));
#525 = DIRECTION('',(1.,0.,0.));
#526 = ADVANCED_FACE('',(#527),#554,.F.);
#527 = FACE_BOUND('',#528,.F.);
#528 = EDGE_LOOP('',(#529,#539,#545,#546,#547,#548));
#529 = ORIENTED_EDGE('',*,*,#530,.F.);
#530 = EDGE_CURVE('',#531,#533,#535,.T.);
#531 = VERTEX_POINT('',#532);
#532 = CARTESIAN_POINT('',(-7.681801948466,6.997487373415,-3.5));
#533 = VERTEX_POINT('',#534);
#534 = CARTESIAN_POINT('',(-7.752512626585,7.068198051534,-3.5));
#535 = LINE('',#536,#537);
#536 = CARTESIAN_POINT('',(-7.681801948466,6.997487373415,-3.5));
#537 = VECTOR('',#538,1.);
#538 = DIRECTION('',(-0.707106781187,0.707106781187,0.));
#539 = ORIENTED_EDGE('',*,*,#540,.T.);
#540 = EDGE_CURVE('',#531,#415,#541,.T.);
#541 = LINE('',#542,#543);
#542 = CARTESIAN_POINT('',(-7.681801948466,6.997487373415,-3.5));
#543 = VECTOR('',#544,1.);
#544 = DIRECTION('',(0.,0.,1.));
#545 = ORIENTED_EDGE('',*,*,#414,.F.);
#546 = ORIENTED_EDGE('',*,*,#113,.T.);
#547 = ORIENTED_EDGE('',*,*,#516,.T.);
#548 = ORIENTED_EDGE('',*,*,#549,.F.);
#549 = EDGE_CURVE('',#533,#507,#550,.T.);
#550 = LINE('',#551,#552);
#551 = CARTESIAN_POINT('',(-7.752512626585,7.068198051534,-3.5));
#552 = VECTOR('',#553,1.);
#553 = DIRECTION('',(0.,0.,1.));
#554 = PLANE('',#555);
#555 = AXIS2_PLACEMENT_3D('',#556,#557,#558);
#556 = CARTESIAN_POINT('',(-7.681801948466,6.997487373415,-3.5));
#557 = DIRECTION('',(-0.707106781187,-0.707106781187,0.));
#558 = DIRECTION('',(-0.707106781187,0.707106781187,0.));
#559 = ADVANCED_FACE('',(#560),#594,.F.);
#560 = FACE_BOUND('',#561,.F.);
#561 = EDGE_LOOP('',(#562,#572,#580,#586,#587,#588));
#562 = ORIENTED_EDGE('',*,*,#563,.F.);
#563 = EDGE_CURVE('',#564,#566,#568,.T.);
#564 = VERTEX_POINT('',#565);
#565 = CARTESIAN_POINT('',(-6.918198051534,7.902512626585,-3.5));
#566 = VERTEX_POINT('',#567);
#567 = CARTESIAN_POINT('',(-6.847487373415,7.831801948466,-3.5));
#568 = LINE('',#569,#570);
#569 = CARTESIAN_POINT('',(-6.918198051534,7.902512626585,-3.5));
#570 = VECTOR('',#571,1.);
#571 = DIRECTION('',(0.707106781187,-0.707106781187,0.));
#572 = ORIENTED_EDGE('',*,*,#573,.T.);
#573 = EDGE_CURVE('',#564,#574,#576,.T.);
#574 = VERTEX_POINT('',#575);
#575 = CARTESIAN_POINT('',(-6.918198051534,7.902512626585,0.1));
#576 = LINE('',#577,#578);
#577 = CARTESIAN_POINT('',(-6.918198051534,7.902512626585,-3.5));
#578 = VECTOR('',#579,1.);
#579 = DIRECTION('',(0.,0.,1.));
#580 = ORIENTED_EDGE('',*,*,#581,.T.);
#581 = EDGE_CURVE('',#574,#90,#582,.T.);
#582 = LINE('',#583,#584);
#583 = CARTESIAN_POINT('',(-6.918198051534,7.902512626585,0.1));
#584 = VECTOR('',#585,1.);
#585 = DIRECTION('',(0.707106781187,-0.707106781187,0.));
#586 = ORIENTED_EDGE('',*,*,#97,.T.);
#587 = ORIENTED_EDGE('',*,*,#407,.F.);
#588 = ORIENTED_EDGE('',*,*,#589,.F.);
#589 = EDGE_CURVE('',#566,#400,#590,.T.);
#590 = LINE('',#591,#592);
#591 = CARTESIAN_POINT('',(-6.847487373415,7.831801948466,-3.5));
#592 = VECTOR('',#593,1.);
#593 = DIRECTION('',(0.,0.,1.));
#594 = PLANE('',#595);
#595 = AXIS2_PLACEMENT_3D('',#596,#597,#598);
#596 = CARTESIAN_POINT('',(-6.918198051534,7.902512626585,-3.5));
#597 = DIRECTION('',(0.707106781187,0.707106781187,0.));
#598 = DIRECTION('',(0.707106781187,-0.707106781187,0.));
#599 = ADVANCED_FACE('',(#600),#618,.T.);
#600 = FACE_BOUND('',#601,.T.);
#601 = EDGE_LOOP('',(#602,#610,#611,#612));
#602 = ORIENTED_EDGE('',*,*,#603,.T.);
#603 = EDGE_CURVE('',#604,#574,#606,.T.);
#604 = VERTEX_POINT('',#605);
#605 = CARTESIAN_POINT('',(-6.352512626585,8.468198051534,0.1));
#606 = LINE('',#607,#608);
#607 = CARTESIAN_POINT('',(-6.352512626585,8.468198051534,0.1));
#608 = VECTOR('',#609,1.);
#609 = DIRECTION('',(-0.707106781186,-0.707106781187,0.));
#610 = ORIENTED_EDGE('',*,*,#581,.T.);
#611 = ORIENTED_EDGE('',*,*,#89,.T.);
#612 = ORIENTED_EDGE('',*,*,#613,.T.);
#613 = EDGE_CURVE('',#82,#604,#614,.T.);
#614 = LINE('',#615,#616);
#615 = CARTESIAN_POINT('',(-6.281801948466,8.397487373415,0.1));
#616 = VECTOR('',#617,1.);
#617 = DIRECTION('',(-0.707106781187,0.707106781187,0.));
#618 = PLANE('',#619);
#619 = AXIS2_PLACEMENT_3D('',#620,#621,#622);
#620 = CARTESIAN_POINT('',(-5.10625,5.14375,0.1));
#621 = DIRECTION('',(0.,0.,1.));
#622 = DIRECTION('',(1.,0.,0.));
#623 = ADVANCED_FACE('',(#624),#651,.F.);
#624 = FACE_BOUND('',#625,.F.);
#625 = EDGE_LOOP('',(#626,#636,#642,#643,#644,#645));
#626 = ORIENTED_EDGE('',*,*,#627,.F.);
#627 = EDGE_CURVE('',#628,#630,#632,.T.);
#628 = VERTEX_POINT('',#629);
#629 = CARTESIAN_POINT('',(-6.281801948466,8.397487373415,-3.5));
#630 = VERTEX_POINT('',#631);
#631 = CARTESIAN_POINT('',(-6.352512626585,8.468198051534,-3.5));
#632 = LINE('',#633,#634);
#633 = CARTESIAN_POINT('',(-6.281801948466,8.397487373415,-3.5));
#634 = VECTOR('',#635,1.);
#635 = DIRECTION('',(-0.707106781187,0.707106781187,0.));
#636 = ORIENTED_EDGE('',*,*,#637,.T.);
#637 = EDGE_CURVE('',#628,#392,#638,.T.);
#638 = LINE('',#639,#640);
#639 = CARTESIAN_POINT('',(-6.281801948466,8.397487373415,-3.5));
#640 = VECTOR('',#641,1.);
#641 = DIRECTION('',(0.,0.,1.));
#642 = ORIENTED_EDGE('',*,*,#391,.F.);
#643 = ORIENTED_EDGE('',*,*,#81,.T.);
#644 = ORIENTED_EDGE('',*,*,#613,.T.);
#645 = ORIENTED_EDGE('',*,*,#646,.F.);
#646 = EDGE_CURVE('',#630,#604,#647,.T.);
#647 = LINE('',#648,#649);
#648 = CARTESIAN_POINT('',(-6.352512626585,8.468198051534,-3.5));
#649 = VECTOR('',#650,1.);
#650 = DIRECTION('',(0.,0.,1.));
#651 = PLANE('',#652);
#652 = AXIS2_PLACEMENT_3D('',#653,#654,#655);
#653 = CARTESIAN_POINT('',(-6.281801948466,8.397487373415,-3.5));
#654 = DIRECTION('',(-0.707106781187,-0.707106781187,0.));
#655 = DIRECTION('',(-0.707106781187,0.707106781187,0.));
#656 = ADVANCED_FACE('',(#657),#744,.T.);
#657 = FACE_BOUND('',#658,.T.);
#658 = EDGE_LOOP('',(#659,#660,#661,#669,#675,#676,#684,#692,#698,#699,
    #707,#715,#721,#722,#730,#738));
#659 = ORIENTED_EDGE('',*,*,#384,.F.);
#660 = ORIENTED_EDGE('',*,*,#65,.T.);
#661 = ORIENTED_EDGE('',*,*,#662,.T.);
#662 = EDGE_CURVE('',#58,#663,#665,.T.);
#663 = VERTEX_POINT('',#664);
#664 = CARTESIAN_POINT('',(6.,8.75,5.4));
#665 = LINE('',#666,#667);
#666 = CARTESIAN_POINT('',(-6.,8.75,5.4));
#667 = VECTOR('',#668,1.);
#668 = DIRECTION('',(1.,0.,0.));
#669 = ORIENTED_EDGE('',*,*,#670,.F.);
#670 = EDGE_CURVE('',#281,#663,#671,.T.);
#671 = LINE('',#672,#673);
#672 = CARTESIAN_POINT('',(6.,8.75,0.));
#673 = VECTOR('',#674,1.);
#674 = DIRECTION('',(0.,0.,1.));
#675 = ORIENTED_EDGE('',*,*,#288,.F.);
#676 = ORIENTED_EDGE('',*,*,#677,.T.);
#677 = EDGE_CURVE('',#289,#678,#680,.T.);
#678 = VERTEX_POINT('',#679);
#679 = CARTESIAN_POINT('',(2.4,8.75,0.1));
#680 = LINE('',#681,#682);
#681 = CARTESIAN_POINT('',(2.4,8.75,-1.75));
#682 = VECTOR('',#683,1.);
#683 = DIRECTION('',(0.,0.,1.));
#684 = ORIENTED_EDGE('',*,*,#685,.F.);
#685 = EDGE_CURVE('',#686,#678,#688,.T.);
#686 = VERTEX_POINT('',#687);
#687 = CARTESIAN_POINT('',(1.6,8.75,0.1));
#688 = LINE('',#689,#690);
#689 = CARTESIAN_POINT('',(-5.553125,8.75,0.1));
#690 = VECTOR('',#691,1.);
#691 = DIRECTION('',(1.,0.,0.));
#692 = ORIENTED_EDGE('',*,*,#693,.T.);
#693 = EDGE_CURVE('',#686,#313,#694,.T.);
#694 = LINE('',#695,#696);
#695 = CARTESIAN_POINT('',(1.6,8.75,-1.75));
#696 = VECTOR('',#697,1.);
#697 = DIRECTION('',(0.,0.,-1.));
#698 = ORIENTED_EDGE('',*,*,#320,.F.);
#699 = ORIENTED_EDGE('',*,*,#700,.T.);
#700 = EDGE_CURVE('',#321,#701,#703,.T.);
#701 = VERTEX_POINT('',#702);
#702 = CARTESIAN_POINT('',(0.4,8.75,0.1));
#703 = LINE('',#704,#705);
#704 = CARTESIAN_POINT('',(0.4,8.75,-1.75));
#705 = VECTOR('',#706,1.);
#706 = DIRECTION('',(0.,0.,1.));
#707 = ORIENTED_EDGE('',*,*,#708,.F.);
#708 = EDGE_CURVE('',#709,#701,#711,.T.);
#709 = VERTEX_POINT('',#710);
#710 = CARTESIAN_POINT('',(-0.4,8.75,0.1));
#711 = LINE('',#712,#713);
#712 = CARTESIAN_POINT('',(-5.553125,8.75,0.1));
#713 = VECTOR('',#714,1.);
#714 = DIRECTION('',(1.,0.,0.));
#715 = ORIENTED_EDGE('',*,*,#716,.T.);
#716 = EDGE_CURVE('',#709,#345,#717,.T.);
#717 = LINE('',#718,#719);
#718 = CARTESIAN_POINT('',(-0.4,8.75,-1.75));
#719 = VECTOR('',#720,1.);
#720 = DIRECTION('',(0.,0.,-1.));
#721 = ORIENTED_EDGE('',*,*,#352,.F.);
#722 = ORIENTED_EDGE('',*,*,#723,.T.);
#723 = EDGE_CURVE('',#353,#724,#726,.T.);
#724 = VERTEX_POINT('',#725);
#725 = CARTESIAN_POINT('',(-1.6,8.75,0.1));
#726 = LINE('',#727,#728);
#727 = CARTESIAN_POINT('',(-1.6,8.75,-1.75));
#728 = VECTOR('',#729,1.);
#729 = DIRECTION('',(0.,0.,1.));
#730 = ORIENTED_EDGE('',*,*,#731,.F.);
#731 = EDGE_CURVE('',#732,#724,#734,.T.);
#732 = VERTEX_POINT('',#733);
#733 = CARTESIAN_POINT('',(-2.4,8.75,0.1));
#734 = LINE('',#735,#736);
#735 = CARTESIAN_POINT('',(-5.553125,8.75,0.1));
#736 = VECTOR('',#737,1.);
#737 = DIRECTION('',(1.,0.,0.));
#738 = ORIENTED_EDGE('',*,*,#739,.T.);
#739 = EDGE_CURVE('',#732,#377,#740,.T.);
#740 = LINE('',#741,#742);
#741 = CARTESIAN_POINT('',(-2.4,8.75,-1.75));
#742 = VECTOR('',#743,1.);
#743 = DIRECTION('',(0.,0.,-1.));
#744 = PLANE('',#745);
#745 = AXIS2_PLACEMENT_3D('',#746,#747,#748);
#746 = CARTESIAN_POINT('',(-6.,8.75,0.));
#747 = DIRECTION('',(0.,1.,0.));
#748 = DIRECTION('',(1.,0.,0.));
#749 = ADVANCED_FACE('',(#750,#800),#811,.T.);
#750 = FACE_BOUND('',#751,.T.);
#751 = EDGE_LOOP('',(#752,#753,#761,#769,#777,#785,#793,#799));
#752 = ORIENTED_EDGE('',*,*,#57,.F.);
#753 = ORIENTED_EDGE('',*,*,#754,.F.);
#754 = EDGE_CURVE('',#755,#50,#757,.T.);
#755 = VERTEX_POINT('',#756);
#756 = CARTESIAN_POINT('',(-8.75,-6.,5.4));
#757 = LINE('',#758,#759);
#758 = CARTESIAN_POINT('',(-8.75,-6.,5.4));
#759 = VECTOR('',#760,1.);
#760 = DIRECTION('',(0.,1.,0.));
#761 = ORIENTED_EDGE('',*,*,#762,.F.);
#762 = EDGE_CURVE('',#763,#755,#765,.T.);
#763 = VERTEX_POINT('',#764);
#764 = CARTESIAN_POINT('',(-6.,-8.75,5.4));
#765 = LINE('',#766,#767);
#766 = CARTESIAN_POINT('',(-6.,-8.75,5.4));
#767 = VECTOR('',#768,1.);
#768 = DIRECTION('',(-0.707106781187,0.707106781187,0.));
#769 = ORIENTED_EDGE('',*,*,#770,.F.);
#770 = EDGE_CURVE('',#771,#763,#773,.T.);
#771 = VERTEX_POINT('',#772);
#772 = CARTESIAN_POINT('',(6.,-8.75,5.4));
#773 = LINE('',#774,#775);
#774 = CARTESIAN_POINT('',(6.,-8.75,5.4));
#775 = VECTOR('',#776,1.);
#776 = DIRECTION('',(-1.,0.,0.));
#777 = ORIENTED_EDGE('',*,*,#778,.F.);
#778 = EDGE_CURVE('',#779,#771,#781,.T.);
#779 = VERTEX_POINT('',#780);
#780 = CARTESIAN_POINT('',(8.75,-6.,5.4));
#781 = LINE('',#782,#783);
#782 = CARTESIAN_POINT('',(8.75,-6.,5.4));
#783 = VECTOR('',#784,1.);
#784 = DIRECTION('',(-0.707106781187,-0.707106781187,0.));
#785 = ORIENTED_EDGE('',*,*,#786,.F.);
#786 = EDGE_CURVE('',#787,#779,#789,.T.);
#787 = VERTEX_POINT('',#788);
#788 = CARTESIAN_POINT('',(8.75,6.,5.4));
#789 = LINE('',#790,#791);
#790 = CARTESIAN_POINT('',(8.75,6.,5.4));
#791 = VECTOR('',#792,1.);
#792 = DIRECTION('',(0.,-1.,0.));
#793 = ORIENTED_EDGE('',*,*,#794,.F.);
#794 = EDGE_CURVE('',#663,#787,#795,.T.);
#795 = LINE('',#796,#797);
#796 = CARTESIAN_POINT('',(6.,8.75,5.4));
#797 = VECTOR('',#798,1.);
#798 = DIRECTION('',(0.707106781187,-0.707106781187,0.));
#799 = ORIENTED_EDGE('',*,*,#662,.F.);
#800 = FACE_BOUND('',#801,.T.);
#801 = EDGE_LOOP('',(#802));
#802 = ORIENTED_EDGE('',*,*,#803,.F.);
#803 = EDGE_CURVE('',#804,#804,#806,.T.);
#804 = VERTEX_POINT('',#805);
#805 = CARTESIAN_POINT('',(4.05,0.,5.4));
#806 = CIRCLE('',#807,4.05);
#807 = AXIS2_PLACEMENT_3D('',#808,#809,#810);
#808 = CARTESIAN_POINT('',(0.,0.,5.4));
#809 = DIRECTION('',(0.,0.,1.));
#810 = DIRECTION('',(1.,0.,0.));
#811 = PLANE('',#812);
#812 = AXIS2_PLACEMENT_3D('',#813,#814,#815);
#813 = CARTESIAN_POINT('',(4.5E-16,3.4E-16,5.4));
#814 = DIRECTION('',(0.,0.,1.));
#815 = DIRECTION('',(1.,0.,0.));
#816 = ADVANCED_FACE('',(#817),#897,.T.);
#817 = FACE_BOUND('',#818,.T.);
#818 = EDGE_LOOP('',(#819,#820,#826,#827,#828,#829,#837,#845,#851,#852,
    #860,#868,#874,#875,#883,#891));
#819 = ORIENTED_EDGE('',*,*,#240,.F.);
#820 = ORIENTED_EDGE('',*,*,#821,.T.);
#821 = EDGE_CURVE('',#241,#755,#822,.T.);
#822 = LINE('',#823,#824);
#823 = CARTESIAN_POINT('',(-8.75,-6.,0.));
#824 = VECTOR('',#825,1.);
#825 = DIRECTION('',(0.,0.,1.));
#826 = ORIENTED_EDGE('',*,*,#754,.T.);
#827 = ORIENTED_EDGE('',*,*,#49,.F.);
#828 = ORIENTED_EDGE('',*,*,#144,.F.);
#829 = ORIENTED_EDGE('',*,*,#830,.T.);
#830 = EDGE_CURVE('',#145,#831,#833,.T.);
#831 = VERTEX_POINT('',#832);
#832 = CARTESIAN_POINT('',(-8.75,2.4,0.1));
#833 = LINE('',#834,#835);
#834 = CARTESIAN_POINT('',(-8.75,2.4,-1.75));
#835 = VECTOR('',#836,1.);
#836 = DIRECTION('',(0.,0.,1.));
#837 = ORIENTED_EDGE('',*,*,#838,.F.);
#838 = EDGE_CURVE('',#839,#831,#841,.T.);
#839 = VERTEX_POINT('',#840);
#840 = CARTESIAN_POINT('',(-8.75,1.6,0.1));
#841 = LINE('',#842,#843);
#842 = CARTESIAN_POINT('',(-8.75,-0.428125,0.1));
#843 = VECTOR('',#844,1.);
#844 = DIRECTION('',(0.,1.,0.));
#845 = ORIENTED_EDGE('',*,*,#846,.T.);
#846 = EDGE_CURVE('',#839,#169,#847,.T.);
#847 = LINE('',#848,#849);
#848 = CARTESIAN_POINT('',(-8.75,1.6,-1.75));
#849 = VECTOR('',#850,1.);
#850 = DIRECTION('',(0.,0.,-1.));
#851 = ORIENTED_EDGE('',*,*,#176,.F.);
#852 = ORIENTED_EDGE('',*,*,#853,.T.);
#853 = EDGE_CURVE('',#177,#854,#856,.T.);
#854 = VERTEX_POINT('',#855);
#855 = CARTESIAN_POINT('',(-8.75,0.4,0.1));
#856 = LINE('',#857,#858);
#857 = CARTESIAN_POINT('',(-8.75,0.4,-1.75));
#858 = VECTOR('',#859,1.);
#859 = DIRECTION('',(0.,0.,1.));
#860 = ORIENTED_EDGE('',*,*,#861,.F.);
#861 = EDGE_CURVE('',#862,#854,#864,.T.);
#862 = VERTEX_POINT('',#863);
#863 = CARTESIAN_POINT('',(-8.75,-0.4,0.1));
#864 = LINE('',#865,#866);
#865 = CARTESIAN_POINT('',(-8.75,-0.428125,0.1));
#866 = VECTOR('',#867,1.);
#867 = DIRECTION('',(0.,1.,0.));
#868 = ORIENTED_EDGE('',*,*,#869,.T.);
#869 = EDGE_CURVE('',#862,#201,#870,.T.);
#870 = LINE('',#871,#872);
#871 = CARTESIAN_POINT('',(-8.75,-0.4,-1.75));
#872 = VECTOR('',#873,1.);
#873 = DIRECTION('',(0.,0.,-1.));
#874 = ORIENTED_EDGE('',*,*,#208,.F.);
#875 = ORIENTED_EDGE('',*,*,#876,.T.);
#876 = EDGE_CURVE('',#209,#877,#879,.T.);
#877 = VERTEX_POINT('',#878);
#878 = CARTESIAN_POINT('',(-8.75,-1.6,0.1));
#879 = LINE('',#880,#881);
#880 = CARTESIAN_POINT('',(-8.75,-1.6,-1.75));
#881 = VECTOR('',#882,1.);
#882 = DIRECTION('',(0.,0.,1.));
#883 = ORIENTED_EDGE('',*,*,#884,.F.);
#884 = EDGE_CURVE('',#885,#877,#887,.T.);
#885 = VERTEX_POINT('',#886);
#886 = CARTESIAN_POINT('',(-8.75,-2.4,0.1));
#887 = LINE('',#888,#889);
#888 = CARTESIAN_POINT('',(-8.75,-0.428125,0.1));
#889 = VECTOR('',#890,1.);
#890 = DIRECTION('',(0.,1.,0.));
#891 = ORIENTED_EDGE('',*,*,#892,.T.);
#892 = EDGE_CURVE('',#885,#233,#893,.T.);
#893 = LINE('',#894,#895);
#894 = CARTESIAN_POINT('',(-8.75,-2.4,-1.75));
#895 = VECTOR('',#896,1.);
#896 = DIRECTION('',(0.,0.,-1.));
#897 = PLANE('',#898);
#898 = AXIS2_PLACEMENT_3D('',#899,#900,#901);
#899 = CARTESIAN_POINT('',(-8.75,-6.,0.));
#900 = DIRECTION('',(-1.,0.,0.));
#901 = DIRECTION('',(0.,1.,0.));
#902 = ADVANCED_FACE('',(#903),#914,.F.);
#903 = FACE_BOUND('',#904,.F.);
#904 = EDGE_LOOP('',(#905,#911,#912,#913));
#905 = ORIENTED_EDGE('',*,*,#906,.F.);
#906 = EDGE_CURVE('',#469,#531,#907,.T.);
#907 = LINE('',#908,#909);
#908 = CARTESIAN_POINT('',(-8.247487373415,6.431801948466,-3.5));
#909 = VECTOR('',#910,1.);
#910 = DIRECTION('',(0.707106781187,0.707106781187,0.));
#911 = ORIENTED_EDGE('',*,*,#492,.T.);
#912 = ORIENTED_EDGE('',*,*,#422,.F.);
#913 = ORIENTED_EDGE('',*,*,#540,.F.);
#914 = PLANE('',#915);
#915 = AXIS2_PLACEMENT_3D('',#916,#917,#918);
#916 = CARTESIAN_POINT('',(-8.247487373415,6.431801948466,-3.5));
#917 = DIRECTION('',(-0.707106781187,0.707106781187,0.));
#918 = DIRECTION('',(0.707106781187,0.707106781187,0.));
#919 = ADVANCED_FACE('',(#920),#931,.F.);
#920 = FACE_BOUND('',#921,.F.);
#921 = EDGE_LOOP('',(#922,#928,#929,#930));
#922 = ORIENTED_EDGE('',*,*,#923,.F.);
#923 = EDGE_CURVE('',#566,#628,#924,.T.);
#924 = LINE('',#925,#926);
#925 = CARTESIAN_POINT('',(-6.847487373415,7.831801948466,-3.5));
#926 = VECTOR('',#927,1.);
#927 = DIRECTION('',(0.707106781187,0.707106781187,0.));
#928 = ORIENTED_EDGE('',*,*,#589,.T.);
#929 = ORIENTED_EDGE('',*,*,#399,.F.);
#930 = ORIENTED_EDGE('',*,*,#637,.F.);
#931 = PLANE('',#932);
#932 = AXIS2_PLACEMENT_3D('',#933,#934,#935);
#933 = CARTESIAN_POINT('',(-6.847487373415,7.831801948466,-3.5));
#934 = DIRECTION('',(-0.707106781187,0.707106781187,0.));
#935 = DIRECTION('',(0.707106781187,0.707106781187,0.));
#936 = ADVANCED_FACE('',(#937),#971,.F.);
#937 = FACE_BOUND('',#938,.F.);
#938 = EDGE_LOOP('',(#939,#949,#957,#963,#964,#965));
#939 = ORIENTED_EDGE('',*,*,#940,.F.);
#940 = EDGE_CURVE('',#941,#943,#945,.T.);
#941 = VERTEX_POINT('',#942);
#942 = CARTESIAN_POINT('',(-2.4,8.8,-3.5));
#943 = VERTEX_POINT('',#944);
#944 = CARTESIAN_POINT('',(-2.4,8.7,-3.5));
#945 = LINE('',#946,#947);
#946 = CARTESIAN_POINT('',(-2.4,8.8,-3.5));
#947 = VECTOR('',#948,1.);
#948 = DIRECTION('',(0.,-1.,0.));
#949 = ORIENTED_EDGE('',*,*,#950,.T.);
#950 = EDGE_CURVE('',#941,#951,#953,.T.);
#951 = VERTEX_POINT('',#952);
#952 = CARTESIAN_POINT('',(-2.4,8.8,0.1));
#953 = LINE('',#954,#955);
#954 = CARTESIAN_POINT('',(-2.4,8.8,-3.5));
#955 = VECTOR('',#956,1.);
#956 = DIRECTION('',(0.,0.,1.));
#957 = ORIENTED_EDGE('',*,*,#958,.T.);
#958 = EDGE_CURVE('',#951,#732,#959,.T.);
#959 = LINE('',#960,#961);
#960 = CARTESIAN_POINT('',(-2.4,8.8,0.1));
#961 = VECTOR('',#962,1.);
#962 = DIRECTION('',(0.,-1.,0.));
#963 = ORIENTED_EDGE('',*,*,#739,.T.);
#964 = ORIENTED_EDGE('',*,*,#376,.F.);
#965 = ORIENTED_EDGE('',*,*,#966,.F.);
#966 = EDGE_CURVE('',#943,#369,#967,.T.);
#967 = LINE('',#968,#969);
#968 = CARTESIAN_POINT('',(-2.4,8.7,-3.5));
#969 = VECTOR('',#970,1.);
#970 = DIRECTION('',(0.,0.,1.));
#971 = PLANE('',#972);
#972 = AXIS2_PLACEMENT_3D('',#973,#974,#975);
#973 = CARTESIAN_POINT('',(-2.4,8.8,-3.5));
#974 = DIRECTION('',(1.,0.,0.));
#975 = DIRECTION('',(0.,-1.,0.));
#976 = ADVANCED_FACE('',(#977),#995,.F.);
#977 = FACE_BOUND('',#978,.F.);
#978 = EDGE_LOOP('',(#979,#987,#988,#989));
#979 = ORIENTED_EDGE('',*,*,#980,.F.);
#980 = EDGE_CURVE('',#943,#981,#983,.T.);
#981 = VERTEX_POINT('',#982);
#982 = CARTESIAN_POINT('',(-1.6,8.7,-3.5));
#983 = LINE('',#984,#985);
#984 = CARTESIAN_POINT('',(-2.4,8.7,-3.5));
#985 = VECTOR('',#986,1.);
#986 = DIRECTION('',(1.,0.,0.));
#987 = ORIENTED_EDGE('',*,*,#966,.T.);
#988 = ORIENTED_EDGE('',*,*,#368,.F.);
#989 = ORIENTED_EDGE('',*,*,#990,.F.);
#990 = EDGE_CURVE('',#981,#361,#991,.T.);
#991 = LINE('',#992,#993);
#992 = CARTESIAN_POINT('',(-1.6,8.7,-3.5));
#993 = VECTOR('',#994,1.);
#994 = DIRECTION('',(0.,0.,1.));
#995 = PLANE('',#996);
#996 = AXIS2_PLACEMENT_3D('',#997,#998,#999);
#997 = CARTESIAN_POINT('',(-2.4,8.7,-3.5));
#998 = DIRECTION('',(0.,1.,0.));
#999 = DIRECTION('',(1.,0.,0.));
#1000 = ADVANCED_FACE('',(#1001),#1028,.F.);
#1001 = FACE_BOUND('',#1002,.F.);
#1002 = EDGE_LOOP('',(#1003,#1011,#1012,#1013,#1014,#1022));
#1003 = ORIENTED_EDGE('',*,*,#1004,.F.);
#1004 = EDGE_CURVE('',#981,#1005,#1007,.T.);
#1005 = VERTEX_POINT('',#1006);
#1006 = CARTESIAN_POINT('',(-1.6,8.8,-3.5));
#1007 = LINE('',#1008,#1009);
#1008 = CARTESIAN_POINT('',(-1.6,8.7,-3.5));
#1009 = VECTOR('',#1010,1.);
#1010 = DIRECTION('',(0.,1.,0.));
#1011 = ORIENTED_EDGE('',*,*,#990,.T.);
#1012 = ORIENTED_EDGE('',*,*,#360,.F.);
#1013 = ORIENTED_EDGE('',*,*,#723,.T.);
#1014 = ORIENTED_EDGE('',*,*,#1015,.T.);
#1015 = EDGE_CURVE('',#724,#1016,#1018,.T.);
#1016 = VERTEX_POINT('',#1017);
#1017 = CARTESIAN_POINT('',(-1.6,8.8,0.1));
#1018 = LINE('',#1019,#1020);
#1019 = CARTESIAN_POINT('',(-1.6,8.7,0.1));
#1020 = VECTOR('',#1021,1.);
#1021 = DIRECTION('',(0.,1.,0.));
#1022 = ORIENTED_EDGE('',*,*,#1023,.F.);
#1023 = EDGE_CURVE('',#1005,#1016,#1024,.T.);
#1024 = LINE('',#1025,#1026);
#1025 = CARTESIAN_POINT('',(-1.6,8.8,-3.5));
#1026 = VECTOR('',#1027,1.);
#1027 = DIRECTION('',(0.,0.,1.));
#1028 = PLANE('',#1029);
#1029 = AXIS2_PLACEMENT_3D('',#1030,#1031,#1032);
#1030 = CARTESIAN_POINT('',(-1.6,8.7,-3.5));
#1031 = DIRECTION('',(-1.,0.,0.));
#1032 = DIRECTION('',(0.,1.,0.));
#1033 = ADVANCED_FACE('',(#1034),#1068,.F.);
#1034 = FACE_BOUND('',#1035,.F.);
#1035 = EDGE_LOOP('',(#1036,#1046,#1054,#1060,#1061,#1062));
#1036 = ORIENTED_EDGE('',*,*,#1037,.F.);
#1037 = EDGE_CURVE('',#1038,#1040,#1042,.T.);
#1038 = VERTEX_POINT('',#1039);
#1039 = CARTESIAN_POINT('',(-0.4,8.8,-3.5));
#1040 = VERTEX_POINT('',#1041);
#1041 = CARTESIAN_POINT('',(-0.4,8.7,-3.5));
#1042 = LINE('',#1043,#1044);
#1043 = CARTESIAN_POINT('',(-0.4,8.8,-3.5));
#1044 = VECTOR('',#1045,1.);
#1045 = DIRECTION('',(0.,-1.,0.));
#1046 = ORIENTED_EDGE('',*,*,#1047,.T.);
#1047 = EDGE_CURVE('',#1038,#1048,#1050,.T.);
#1048 = VERTEX_POINT('',#1049);
#1049 = CARTESIAN_POINT('',(-0.4,8.8,0.1));
#1050 = LINE('',#1051,#1052);
#1051 = CARTESIAN_POINT('',(-0.4,8.8,-3.5));
#1052 = VECTOR('',#1053,1.);
#1053 = DIRECTION('',(0.,0.,1.));
#1054 = ORIENTED_EDGE('',*,*,#1055,.T.);
#1055 = EDGE_CURVE('',#1048,#709,#1056,.T.);
#1056 = LINE('',#1057,#1058);
#1057 = CARTESIAN_POINT('',(-0.4,8.8,0.1));
#1058 = VECTOR('',#1059,1.);
#1059 = DIRECTION('',(0.,-1.,0.));
#1060 = ORIENTED_EDGE('',*,*,#716,.T.);
#1061 = ORIENTED_EDGE('',*,*,#344,.F.);
#1062 = ORIENTED_EDGE('',*,*,#1063,.F.);
#1063 = EDGE_CURVE('',#1040,#337,#1064,.T.);
#1064 = LINE('',#1065,#1066);
#1065 = CARTESIAN_POINT('',(-0.4,8.7,-3.5));
#1066 = VECTOR('',#1067,1.);
#1067 = DIRECTION('',(0.,0.,1.));
#1068 = PLANE('',#1069);
#1069 = AXIS2_PLACEMENT_3D('',#1070,#1071,#1072);
#1070 = CARTESIAN_POINT('',(-0.4,8.8,-3.5));
#1071 = DIRECTION('',(1.,0.,0.));
#1072 = DIRECTION('',(0.,-1.,0.));
#1073 = ADVANCED_FACE('',(#1074),#1092,.F.);
#1074 = FACE_BOUND('',#1075,.F.);
#1075 = EDGE_LOOP('',(#1076,#1084,#1085,#1086));
#1076 = ORIENTED_EDGE('',*,*,#1077,.F.);
#1077 = EDGE_CURVE('',#1040,#1078,#1080,.T.);
#1078 = VERTEX_POINT('',#1079);
#1079 = CARTESIAN_POINT('',(0.4,8.7,-3.5));
#1080 = LINE('',#1081,#1082);
#1081 = CARTESIAN_POINT('',(-0.4,8.7,-3.5));
#1082 = VECTOR('',#1083,1.);
#1083 = DIRECTION('',(1.,0.,0.));
#1084 = ORIENTED_EDGE('',*,*,#1063,.T.);
#1085 = ORIENTED_EDGE('',*,*,#336,.F.);
#1086 = ORIENTED_EDGE('',*,*,#1087,.F.);
#1087 = EDGE_CURVE('',#1078,#329,#1088,.T.);
#1088 = LINE('',#1089,#1090);
#1089 = CARTESIAN_POINT('',(0.4,8.7,-3.5));
#1090 = VECTOR('',#1091,1.);
#1091 = DIRECTION('',(0.,0.,1.));
#1092 = PLANE('',#1093);
#1093 = AXIS2_PLACEMENT_3D('',#1094,#1095,#1096);
#1094 = CARTESIAN_POINT('',(-0.4,8.7,-3.5));
#1095 = DIRECTION('',(0.,1.,0.));
#1096 = DIRECTION('',(1.,0.,0.));
#1097 = ADVANCED_FACE('',(#1098),#1125,.F.);
#1098 = FACE_BOUND('',#1099,.F.);
#1099 = EDGE_LOOP('',(#1100,#1108,#1109,#1110,#1111,#1119));
#1100 = ORIENTED_EDGE('',*,*,#1101,.F.);
#1101 = EDGE_CURVE('',#1078,#1102,#1104,.T.);
#1102 = VERTEX_POINT('',#1103);
#1103 = CARTESIAN_POINT('',(0.4,8.8,-3.5));
#1104 = LINE('',#1105,#1106);
#1105 = CARTESIAN_POINT('',(0.4,8.7,-3.5));
#1106 = VECTOR('',#1107,1.);
#1107 = DIRECTION('',(0.,1.,0.));
#1108 = ORIENTED_EDGE('',*,*,#1087,.T.);
#1109 = ORIENTED_EDGE('',*,*,#328,.F.);
#1110 = ORIENTED_EDGE('',*,*,#700,.T.);
#1111 = ORIENTED_EDGE('',*,*,#1112,.T.);
#1112 = EDGE_CURVE('',#701,#1113,#1115,.T.);
#1113 = VERTEX_POINT('',#1114);
#1114 = CARTESIAN_POINT('',(0.4,8.8,0.1));
#1115 = LINE('',#1116,#1117);
#1116 = CARTESIAN_POINT('',(0.4,8.7,0.1));
#1117 = VECTOR('',#1118,1.);
#1118 = DIRECTION('',(0.,1.,0.));
#1119 = ORIENTED_EDGE('',*,*,#1120,.F.);
#1120 = EDGE_CURVE('',#1102,#1113,#1121,.T.);
#1121 = LINE('',#1122,#1123);
#1122 = CARTESIAN_POINT('',(0.4,8.8,-3.5));
#1123 = VECTOR('',#1124,1.);
#1124 = DIRECTION('',(0.,0.,1.));
#1125 = PLANE('',#1126);
#1126 = AXIS2_PLACEMENT_3D('',#1127,#1128,#1129);
#1127 = CARTESIAN_POINT('',(0.4,8.7,-3.5));
#1128 = DIRECTION('',(-1.,0.,0.));
#1129 = DIRECTION('',(0.,1.,0.));
#1130 = ADVANCED_FACE('',(#1131),#1165,.F.);
#1131 = FACE_BOUND('',#1132,.F.);
#1132 = EDGE_LOOP('',(#1133,#1143,#1151,#1157,#1158,#1159));
#1133 = ORIENTED_EDGE('',*,*,#1134,.F.);
#1134 = EDGE_CURVE('',#1135,#1137,#1139,.T.);
#1135 = VERTEX_POINT('',#1136);
#1136 = CARTESIAN_POINT('',(1.6,8.8,-3.5));
#1137 = VERTEX_POINT('',#1138);
#1138 = CARTESIAN_POINT('',(1.6,8.7,-3.5));
#1139 = LINE('',#1140,#1141);
#1140 = CARTESIAN_POINT('',(1.6,8.8,-3.5));
#1141 = VECTOR('',#1142,1.);
#1142 = DIRECTION('',(0.,-1.,0.));
#1143 = ORIENTED_EDGE('',*,*,#1144,.T.);
#1144 = EDGE_CURVE('',#1135,#1145,#1147,.T.);
#1145 = VERTEX_POINT('',#1146);
#1146 = CARTESIAN_POINT('',(1.6,8.8,0.1));
#1147 = LINE('',#1148,#1149);
#1148 = CARTESIAN_POINT('',(1.6,8.8,-3.5));
#1149 = VECTOR('',#1150,1.);
#1150 = DIRECTION('',(0.,0.,1.));
#1151 = ORIENTED_EDGE('',*,*,#1152,.T.);
#1152 = EDGE_CURVE('',#1145,#686,#1153,.T.);
#1153 = LINE('',#1154,#1155);
#1154 = CARTESIAN_POINT('',(1.6,8.8,0.1));
#1155 = VECTOR('',#1156,1.);
#1156 = DIRECTION('',(0.,-1.,0.));
#1157 = ORIENTED_EDGE('',*,*,#693,.T.);
#1158 = ORIENTED_EDGE('',*,*,#312,.F.);
#1159 = ORIENTED_EDGE('',*,*,#1160,.F.);
#1160 = EDGE_CURVE('',#1137,#305,#1161,.T.);
#1161 = LINE('',#1162,#1163);
#1162 = CARTESIAN_POINT('',(1.6,8.7,-3.5));
#1163 = VECTOR('',#1164,1.);
#1164 = DIRECTION('',(0.,0.,1.));
#1165 = PLANE('',#1166);
#1166 = AXIS2_PLACEMENT_3D('',#1167,#1168,#1169);
#1167 = CARTESIAN_POINT('',(1.6,8.8,-3.5));
#1168 = DIRECTION('',(1.,0.,0.));
#1169 = DIRECTION('',(0.,-1.,0.));
#1170 = ADVANCED_FACE('',(#1171),#1189,.F.);
#1171 = FACE_BOUND('',#1172,.F.);
#1172 = EDGE_LOOP('',(#1173,#1181,#1182,#1183));
#1173 = ORIENTED_EDGE('',*,*,#1174,.F.);
#1174 = EDGE_CURVE('',#1137,#1175,#1177,.T.);
#1175 = VERTEX_POINT('',#1176);
#1176 = CARTESIAN_POINT('',(2.4,8.7,-3.5));
#1177 = LINE('',#1178,#1179);
#1178 = CARTESIAN_POINT('',(1.6,8.7,-3.5));
#1179 = VECTOR('',#1180,1.);
#1180 = DIRECTION('',(1.,0.,0.));
#1181 = ORIENTED_EDGE('',*,*,#1160,.T.);
#1182 = ORIENTED_EDGE('',*,*,#304,.F.);
#1183 = ORIENTED_EDGE('',*,*,#1184,.F.);
#1184 = EDGE_CURVE('',#1175,#297,#1185,.T.);
#1185 = LINE('',#1186,#1187);
#1186 = CARTESIAN_POINT('',(2.4,8.7,-3.5));
#1187 = VECTOR('',#1188,1.);
#1188 = DIRECTION('',(0.,0.,1.));
#1189 = PLANE('',#1190);
#1190 = AXIS2_PLACEMENT_3D('',#1191,#1192,#1193);
#1191 = CARTESIAN_POINT('',(1.6,8.7,-3.5));
#1192 = DIRECTION('',(0.,1.,0.));
#1193 = DIRECTION('',(1.,0.,0.));
#1194 = ADVANCED_FACE('',(#1195),#1222,.F.);
#1195 = FACE_BOUND('',#1196,.F.);
#1196 = EDGE_LOOP('',(#1197,#1205,#1206,#1207,#1208,#1216));
#1197 = ORIENTED_EDGE('',*,*,#1198,.F.);
#1198 = EDGE_CURVE('',#1175,#1199,#1201,.T.);
#1199 = VERTEX_POINT('',#1200);
#1200 = CARTESIAN_POINT('',(2.4,8.8,-3.5));
#1201 = LINE('',#1202,#1203);
#1202 = CARTESIAN_POINT('',(2.4,8.7,-3.5));
#1203 = VECTOR('',#1204,1.);
#1204 = DIRECTION('',(0.,1.,0.));
#1205 = ORIENTED_EDGE('',*,*,#1184,.T.);
#1206 = ORIENTED_EDGE('',*,*,#296,.F.);
#1207 = ORIENTED_EDGE('',*,*,#677,.T.);
#1208 = ORIENTED_EDGE('',*,*,#1209,.T.);
#1209 = EDGE_CURVE('',#678,#1210,#1212,.T.);
#1210 = VERTEX_POINT('',#1211);
#1211 = CARTESIAN_POINT('',(2.4,8.8,0.1));
#1212 = LINE('',#1213,#1214);
#1213 = CARTESIAN_POINT('',(2.4,8.7,0.1));
#1214 = VECTOR('',#1215,1.);
#1215 = DIRECTION('',(0.,1.,0.));
#1216 = ORIENTED_EDGE('',*,*,#1217,.F.);
#1217 = EDGE_CURVE('',#1199,#1210,#1218,.T.);
#1218 = LINE('',#1219,#1220);
#1219 = CARTESIAN_POINT('',(2.4,8.8,-3.5));
#1220 = VECTOR('',#1221,1.);
#1221 = DIRECTION('',(0.,0.,1.));
#1222 = PLANE('',#1223);
#1223 = AXIS2_PLACEMENT_3D('',#1224,#1225,#1226);
#1224 = CARTESIAN_POINT('',(2.4,8.7,-3.5));
#1225 = DIRECTION('',(-1.,0.,0.));
#1226 = DIRECTION('',(0.,1.,0.));
#1227 = ADVANCED_FACE('',(#1228),#1239,.T.);
#1228 = FACE_BOUND('',#1229,.T.);
#1229 = EDGE_LOOP('',(#1230,#1231,#1232,#1238));
#1230 = ORIENTED_EDGE('',*,*,#670,.T.);
#1231 = ORIENTED_EDGE('',*,*,#794,.T.);
#1232 = ORIENTED_EDGE('',*,*,#1233,.F.);
#1233 = EDGE_CURVE('',#273,#787,#1234,.T.);
#1234 = LINE('',#1235,#1236);
#1235 = CARTESIAN_POINT('',(8.75,6.,0.));
#1236 = VECTOR('',#1237,1.);
#1237 = DIRECTION('',(0.,0.,1.));
#1238 = ORIENTED_EDGE('',*,*,#280,.F.);
#1239 = PLANE('',#1240);
#1240 = AXIS2_PLACEMENT_3D('',#1241,#1242,#1243);
#1241 = CARTESIAN_POINT('',(6.,8.75,0.));
#1242 = DIRECTION('',(0.707106781187,0.707106781187,0.));
#1243 = DIRECTION('',(0.707106781187,-0.707106781187,0.));
#1244 = ADVANCED_FACE('',(#1245),#1256,.T.);
#1245 = FACE_BOUND('',#1246,.T.);
#1246 = EDGE_LOOP('',(#1247,#1248,#1249,#1255));
#1247 = ORIENTED_EDGE('',*,*,#1233,.T.);
#1248 = ORIENTED_EDGE('',*,*,#786,.T.);
#1249 = ORIENTED_EDGE('',*,*,#1250,.F.);
#1250 = EDGE_CURVE('',#265,#779,#1251,.T.);
#1251 = LINE('',#1252,#1253);
#1252 = CARTESIAN_POINT('',(8.75,-6.,0.));
#1253 = VECTOR('',#1254,1.);
#1254 = DIRECTION('',(0.,0.,1.));
#1255 = ORIENTED_EDGE('',*,*,#272,.F.);
#1256 = PLANE('',#1257);
#1257 = AXIS2_PLACEMENT_3D('',#1258,#1259,#1260);
#1258 = CARTESIAN_POINT('',(8.75,6.,0.));
#1259 = DIRECTION('',(1.,0.,0.));
#1260 = DIRECTION('',(0.,-1.,0.));
#1261 = ADVANCED_FACE('',(#1262),#1273,.T.);
#1262 = FACE_BOUND('',#1263,.T.);
#1263 = EDGE_LOOP('',(#1264,#1265,#1266,#1272));
#1264 = ORIENTED_EDGE('',*,*,#1250,.T.);
#1265 = ORIENTED_EDGE('',*,*,#778,.T.);
#1266 = ORIENTED_EDGE('',*,*,#1267,.F.);
#1267 = EDGE_CURVE('',#257,#771,#1268,.T.);
#1268 = LINE('',#1269,#1270);
#1269 = CARTESIAN_POINT('',(6.,-8.75,0.));
#1270 = VECTOR('',#1271,1.);
#1271 = DIRECTION('',(0.,0.,1.));
#1272 = ORIENTED_EDGE('',*,*,#264,.F.);
#1273 = PLANE('',#1274);
#1274 = AXIS2_PLACEMENT_3D('',#1275,#1276,#1277);
#1275 = CARTESIAN_POINT('',(8.75,-6.,0.));
#1276 = DIRECTION('',(0.707106781187,-0.707106781187,0.));
#1277 = DIRECTION('',(-0.707106781187,-0.707106781187,0.));
#1278 = ADVANCED_FACE('',(#1279),#1290,.T.);
#1279 = FACE_BOUND('',#1280,.T.);
#1280 = EDGE_LOOP('',(#1281,#1282,#1283,#1289));
#1281 = ORIENTED_EDGE('',*,*,#1267,.T.);
#1282 = ORIENTED_EDGE('',*,*,#770,.T.);
#1283 = ORIENTED_EDGE('',*,*,#1284,.F.);
#1284 = EDGE_CURVE('',#249,#763,#1285,.T.);
#1285 = LINE('',#1286,#1287);
#1286 = CARTESIAN_POINT('',(-6.,-8.75,0.));
#1287 = VECTOR('',#1288,1.);
#1288 = DIRECTION('',(0.,0.,1.));
#1289 = ORIENTED_EDGE('',*,*,#256,.F.);
#1290 = PLANE('',#1291);
#1291 = AXIS2_PLACEMENT_3D('',#1292,#1293,#1294);
#1292 = CARTESIAN_POINT('',(6.,-8.75,0.));
#1293 = DIRECTION('',(0.,-1.,0.));
#1294 = DIRECTION('',(-1.,0.,0.));
#1295 = ADVANCED_FACE('',(#1296),#1302,.T.);
#1296 = FACE_BOUND('',#1297,.T.);
#1297 = EDGE_LOOP('',(#1298,#1299,#1300,#1301));
#1298 = ORIENTED_EDGE('',*,*,#1284,.T.);
#1299 = ORIENTED_EDGE('',*,*,#762,.T.);
#1300 = ORIENTED_EDGE('',*,*,#821,.F.);
#1301 = ORIENTED_EDGE('',*,*,#248,.F.);
#1302 = PLANE('',#1303);
#1303 = AXIS2_PLACEMENT_3D('',#1304,#1305,#1306);
#1304 = CARTESIAN_POINT('',(-6.,-8.75,0.));
#1305 = DIRECTION('',(-0.707106781187,-0.707106781187,0.));
#1306 = DIRECTION('',(-0.707106781187,0.707106781187,0.));
#1307 = ADVANCED_FACE('',(#1308),#1342,.F.);
#1308 = FACE_BOUND('',#1309,.F.);
#1309 = EDGE_LOOP('',(#1310,#1320,#1328,#1334,#1335,#1336));
#1310 = ORIENTED_EDGE('',*,*,#1311,.F.);
#1311 = EDGE_CURVE('',#1312,#1314,#1316,.T.);
#1312 = VERTEX_POINT('',#1313);
#1313 = CARTESIAN_POINT('',(-8.8,-2.4,-3.5));
#1314 = VERTEX_POINT('',#1315);
#1315 = CARTESIAN_POINT('',(-8.7,-2.4,-3.5));
#1316 = LINE('',#1317,#1318);
#1317 = CARTESIAN_POINT('',(-8.8,-2.4,-3.5));
#1318 = VECTOR('',#1319,1.);
#1319 = DIRECTION('',(1.,0.,0.));
#1320 = ORIENTED_EDGE('',*,*,#1321,.T.);
#1321 = EDGE_CURVE('',#1312,#1322,#1324,.T.);
#1322 = VERTEX_POINT('',#1323);
#1323 = CARTESIAN_POINT('',(-8.8,-2.4,0.1));
#1324 = LINE('',#1325,#1326);
#1325 = CARTESIAN_POINT('',(-8.8,-2.4,-3.5));
#1326 = VECTOR('',#1327,1.);
#1327 = DIRECTION('',(0.,0.,1.));
#1328 = ORIENTED_EDGE('',*,*,#1329,.T.);
#1329 = EDGE_CURVE('',#1322,#885,#1330,.T.);
#1330 = LINE('',#1331,#1332);
#1331 = CARTESIAN_POINT('',(-8.8,-2.4,0.1));
#1332 = VECTOR('',#1333,1.);
#1333 = DIRECTION('',(1.,0.,0.));
#1334 = ORIENTED_EDGE('',*,*,#892,.T.);
#1335 = ORIENTED_EDGE('',*,*,#232,.F.);
#1336 = ORIENTED_EDGE('',*,*,#1337,.F.);
#1337 = EDGE_CURVE('',#1314,#225,#1338,.T.);
#1338 = LINE('',#1339,#1340);
#1339 = CARTESIAN_POINT('',(-8.7,-2.4,-3.5));
#1340 = VECTOR('',#1341,1.);
#1341 = DIRECTION('',(0.,0.,1.));
#1342 = PLANE('',#1343);
#1343 = AXIS2_PLACEMENT_3D('',#1344,#1345,#1346);
#1344 = CARTESIAN_POINT('',(-8.8,-2.4,-3.5));
#1345 = DIRECTION('',(0.,1.,0.));
#1346 = DIRECTION('',(1.,0.,0.));
#1347 = ADVANCED_FACE('',(#1348),#1366,.F.);
#1348 = FACE_BOUND('',#1349,.F.);
#1349 = EDGE_LOOP('',(#1350,#1358,#1359,#1360));
#1350 = ORIENTED_EDGE('',*,*,#1351,.F.);
#1351 = EDGE_CURVE('',#1314,#1352,#1354,.T.);
#1352 = VERTEX_POINT('',#1353);
#1353 = CARTESIAN_POINT('',(-8.7,-1.6,-3.5));
#1354 = LINE('',#1355,#1356);
#1355 = CARTESIAN_POINT('',(-8.7,-2.4,-3.5));
#1356 = VECTOR('',#1357,1.);
#1357 = DIRECTION('',(0.,1.,0.));
#1358 = ORIENTED_EDGE('',*,*,#1337,.T.);
#1359 = ORIENTED_EDGE('',*,*,#224,.F.);
#1360 = ORIENTED_EDGE('',*,*,#1361,.F.);
#1361 = EDGE_CURVE('',#1352,#217,#1362,.T.);
#1362 = LINE('',#1363,#1364);
#1363 = CARTESIAN_POINT('',(-8.7,-1.6,-3.5));
#1364 = VECTOR('',#1365,1.);
#1365 = DIRECTION('',(0.,0.,1.));
#1366 = PLANE('',#1367);
#1367 = AXIS2_PLACEMENT_3D('',#1368,#1369,#1370);
#1368 = CARTESIAN_POINT('',(-8.7,-2.4,-3.5));
#1369 = DIRECTION('',(-1.,0.,0.));
#1370 = DIRECTION('',(0.,1.,0.));
#1371 = ADVANCED_FACE('',(#1372),#1399,.F.);
#1372 = FACE_BOUND('',#1373,.F.);
#1373 = EDGE_LOOP('',(#1374,#1382,#1383,#1384,#1385,#1393));
#1374 = ORIENTED_EDGE('',*,*,#1375,.F.);
#1375 = EDGE_CURVE('',#1352,#1376,#1378,.T.);
#1376 = VERTEX_POINT('',#1377);
#1377 = CARTESIAN_POINT('',(-8.8,-1.6,-3.5));
#1378 = LINE('',#1379,#1380);
#1379 = CARTESIAN_POINT('',(-8.7,-1.6,-3.5));
#1380 = VECTOR('',#1381,1.);
#1381 = DIRECTION('',(-1.,0.,0.));
#1382 = ORIENTED_EDGE('',*,*,#1361,.T.);
#1383 = ORIENTED_EDGE('',*,*,#216,.F.);
#1384 = ORIENTED_EDGE('',*,*,#876,.T.);
#1385 = ORIENTED_EDGE('',*,*,#1386,.T.);
#1386 = EDGE_CURVE('',#877,#1387,#1389,.T.);
#1387 = VERTEX_POINT('',#1388);
#1388 = CARTESIAN_POINT('',(-8.8,-1.6,0.1));
#1389 = LINE('',#1390,#1391);
#1390 = CARTESIAN_POINT('',(-8.7,-1.6,0.1));
#1391 = VECTOR('',#1392,1.);
#1392 = DIRECTION('',(-1.,0.,0.));
#1393 = ORIENTED_EDGE('',*,*,#1394,.F.);
#1394 = EDGE_CURVE('',#1376,#1387,#1395,.T.);
#1395 = LINE('',#1396,#1397);
#1396 = CARTESIAN_POINT('',(-8.8,-1.6,-3.5));
#1397 = VECTOR('',#1398,1.);
#1398 = DIRECTION('',(0.,0.,1.));
#1399 = PLANE('',#1400);
#1400 = AXIS2_PLACEMENT_3D('',#1401,#1402,#1403);
#1401 = CARTESIAN_POINT('',(-8.7,-1.6,-3.5));
#1402 = DIRECTION('',(0.,-1.,0.));
#1403 = DIRECTION('',(-1.,0.,0.));
#1404 = ADVANCED_FACE('',(#1405),#1439,.F.);
#1405 = FACE_BOUND('',#1406,.F.);
#1406 = EDGE_LOOP('',(#1407,#1417,#1425,#1431,#1432,#1433));
#1407 = ORIENTED_EDGE('',*,*,#1408,.F.);
#1408 = EDGE_CURVE('',#1409,#1411,#1413,.T.);
#1409 = VERTEX_POINT('',#1410);
#1410 = CARTESIAN_POINT('',(-8.8,-0.4,-3.5));
#1411 = VERTEX_POINT('',#1412);
#1412 = CARTESIAN_POINT('',(-8.7,-0.4,-3.5));
#1413 = LINE('',#1414,#1415);
#1414 = CARTESIAN_POINT('',(-8.8,-0.4,-3.5));
#1415 = VECTOR('',#1416,1.);
#1416 = DIRECTION('',(1.,0.,0.));
#1417 = ORIENTED_EDGE('',*,*,#1418,.T.);
#1418 = EDGE_CURVE('',#1409,#1419,#1421,.T.);
#1419 = VERTEX_POINT('',#1420);
#1420 = CARTESIAN_POINT('',(-8.8,-0.4,0.1));
#1421 = LINE('',#1422,#1423);
#1422 = CARTESIAN_POINT('',(-8.8,-0.4,-3.5));
#1423 = VECTOR('',#1424,1.);
#1424 = DIRECTION('',(0.,0.,1.));
#1425 = ORIENTED_EDGE('',*,*,#1426,.T.);
#1426 = EDGE_CURVE('',#1419,#862,#1427,.T.);
#1427 = LINE('',#1428,#1429);
#1428 = CARTESIAN_POINT('',(-8.8,-0.4,0.1));
#1429 = VECTOR('',#1430,1.);
#1430 = DIRECTION('',(1.,0.,0.));
#1431 = ORIENTED_EDGE('',*,*,#869,.T.);
#1432 = ORIENTED_EDGE('',*,*,#200,.F.);
#1433 = ORIENTED_EDGE('',*,*,#1434,.F.);
#1434 = EDGE_CURVE('',#1411,#193,#1435,.T.);
#1435 = LINE('',#1436,#1437);
#1436 = CARTESIAN_POINT('',(-8.7,-0.4,-3.5));
#1437 = VECTOR('',#1438,1.);
#1438 = DIRECTION('',(0.,0.,1.));
#1439 = PLANE('',#1440);
#1440 = AXIS2_PLACEMENT_3D('',#1441,#1442,#1443);
#1441 = CARTESIAN_POINT('',(-8.8,-0.4,-3.5));
#1442 = DIRECTION('',(0.,1.,0.));
#1443 = DIRECTION('',(1.,0.,0.));
#1444 = ADVANCED_FACE('',(#1445),#1463,.F.);
#1445 = FACE_BOUND('',#1446,.F.);
#1446 = EDGE_LOOP('',(#1447,#1455,#1456,#1457));
#1447 = ORIENTED_EDGE('',*,*,#1448,.F.);
#1448 = EDGE_CURVE('',#1411,#1449,#1451,.T.);
#1449 = VERTEX_POINT('',#1450);
#1450 = CARTESIAN_POINT('',(-8.7,0.4,-3.5));
#1451 = LINE('',#1452,#1453);
#1452 = CARTESIAN_POINT('',(-8.7,-0.4,-3.5));
#1453 = VECTOR('',#1454,1.);
#1454 = DIRECTION('',(0.,1.,0.));
#1455 = ORIENTED_EDGE('',*,*,#1434,.T.);
#1456 = ORIENTED_EDGE('',*,*,#192,.F.);
#1457 = ORIENTED_EDGE('',*,*,#1458,.F.);
#1458 = EDGE_CURVE('',#1449,#185,#1459,.T.);
#1459 = LINE('',#1460,#1461);
#1460 = CARTESIAN_POINT('',(-8.7,0.4,-3.5));
#1461 = VECTOR('',#1462,1.);
#1462 = DIRECTION('',(0.,0.,1.));
#1463 = PLANE('',#1464);
#1464 = AXIS2_PLACEMENT_3D('',#1465,#1466,#1467);
#1465 = CARTESIAN_POINT('',(-8.7,-0.4,-3.5));
#1466 = DIRECTION('',(-1.,0.,0.));
#1467 = DIRECTION('',(0.,1.,0.));
#1468 = ADVANCED_FACE('',(#1469),#1496,.F.);
#1469 = FACE_BOUND('',#1470,.F.);
#1470 = EDGE_LOOP('',(#1471,#1479,#1480,#1481,#1482,#1490));
#1471 = ORIENTED_EDGE('',*,*,#1472,.F.);
#1472 = EDGE_CURVE('',#1449,#1473,#1475,.T.);
#1473 = VERTEX_POINT('',#1474);
#1474 = CARTESIAN_POINT('',(-8.8,0.4,-3.5));
#1475 = LINE('',#1476,#1477);
#1476 = CARTESIAN_POINT('',(-8.7,0.4,-3.5));
#1477 = VECTOR('',#1478,1.);
#1478 = DIRECTION('',(-1.,0.,0.));
#1479 = ORIENTED_EDGE('',*,*,#1458,.T.);
#1480 = ORIENTED_EDGE('',*,*,#184,.F.);
#1481 = ORIENTED_EDGE('',*,*,#853,.T.);
#1482 = ORIENTED_EDGE('',*,*,#1483,.T.);
#1483 = EDGE_CURVE('',#854,#1484,#1486,.T.);
#1484 = VERTEX_POINT('',#1485);
#1485 = CARTESIAN_POINT('',(-8.8,0.4,0.1));
#1486 = LINE('',#1487,#1488);
#1487 = CARTESIAN_POINT('',(-8.7,0.4,0.1));
#1488 = VECTOR('',#1489,1.);
#1489 = DIRECTION('',(-1.,0.,0.));
#1490 = ORIENTED_EDGE('',*,*,#1491,.F.);
#1491 = EDGE_CURVE('',#1473,#1484,#1492,.T.);
#1492 = LINE('',#1493,#1494);
#1493 = CARTESIAN_POINT('',(-8.8,0.4,-3.5));
#1494 = VECTOR('',#1495,1.);
#1495 = DIRECTION('',(0.,0.,1.));
#1496 = PLANE('',#1497);
#1497 = AXIS2_PLACEMENT_3D('',#1498,#1499,#1500);
#1498 = CARTESIAN_POINT('',(-8.7,0.4,-3.5));
#1499 = DIRECTION('',(0.,-1.,0.));
#1500 = DIRECTION('',(-1.,0.,0.));
#1501 = ADVANCED_FACE('',(#1502),#1536,.F.);
#1502 = FACE_BOUND('',#1503,.F.);
#1503 = EDGE_LOOP('',(#1504,#1514,#1522,#1528,#1529,#1530));
#1504 = ORIENTED_EDGE('',*,*,#1505,.F.);
#1505 = EDGE_CURVE('',#1506,#1508,#1510,.T.);
#1506 = VERTEX_POINT('',#1507);
#1507 = CARTESIAN_POINT('',(-8.8,1.6,-3.5));
#1508 = VERTEX_POINT('',#1509);
#1509 = CARTESIAN_POINT('',(-8.7,1.6,-3.5));
#1510 = LINE('',#1511,#1512);
#1511 = CARTESIAN_POINT('',(-8.8,1.6,-3.5));
#1512 = VECTOR('',#1513,1.);
#1513 = DIRECTION('',(1.,0.,0.));
#1514 = ORIENTED_EDGE('',*,*,#1515,.T.);
#1515 = EDGE_CURVE('',#1506,#1516,#1518,.T.);
#1516 = VERTEX_POINT('',#1517);
#1517 = CARTESIAN_POINT('',(-8.8,1.6,0.1));
#1518 = LINE('',#1519,#1520);
#1519 = CARTESIAN_POINT('',(-8.8,1.6,-3.5));
#1520 = VECTOR('',#1521,1.);
#1521 = DIRECTION('',(0.,0.,1.));
#1522 = ORIENTED_EDGE('',*,*,#1523,.T.);
#1523 = EDGE_CURVE('',#1516,#839,#1524,.T.);
#1524 = LINE('',#1525,#1526);
#1525 = CARTESIAN_POINT('',(-8.8,1.6,0.1));
#1526 = VECTOR('',#1527,1.);
#1527 = DIRECTION('',(1.,0.,0.));
#1528 = ORIENTED_EDGE('',*,*,#846,.T.);
#1529 = ORIENTED_EDGE('',*,*,#168,.F.);
#1530 = ORIENTED_EDGE('',*,*,#1531,.F.);
#1531 = EDGE_CURVE('',#1508,#161,#1532,.T.);
#1532 = LINE('',#1533,#1534);
#1533 = CARTESIAN_POINT('',(-8.7,1.6,-3.5));
#1534 = VECTOR('',#1535,1.);
#1535 = DIRECTION('',(0.,0.,1.));
#1536 = PLANE('',#1537);
#1537 = AXIS2_PLACEMENT_3D('',#1538,#1539,#1540);
#1538 = CARTESIAN_POINT('',(-8.8,1.6,-3.5));
#1539 = DIRECTION('',(0.,1.,0.));
#1540 = DIRECTION('',(1.,0.,0.));
#1541 = ADVANCED_FACE('',(#1542),#1560,.F.);
#1542 = FACE_BOUND('',#1543,.F.);
#1543 = EDGE_LOOP('',(#1544,#1552,#1553,#1554));
#1544 = ORIENTED_EDGE('',*,*,#1545,.F.);
#1545 = EDGE_CURVE('',#1508,#1546,#1548,.T.);
#1546 = VERTEX_POINT('',#1547);
#1547 = CARTESIAN_POINT('',(-8.7,2.4,-3.5));
#1548 = LINE('',#1549,#1550);
#1549 = CARTESIAN_POINT('',(-8.7,1.6,-3.5));
#1550 = VECTOR('',#1551,1.);
#1551 = DIRECTION('',(0.,1.,0.));
#1552 = ORIENTED_EDGE('',*,*,#1531,.T.);
#1553 = ORIENTED_EDGE('',*,*,#160,.F.);
#1554 = ORIENTED_EDGE('',*,*,#1555,.F.);
#1555 = EDGE_CURVE('',#1546,#153,#1556,.T.);
#1556 = LINE('',#1557,#1558);
#1557 = CARTESIAN_POINT('',(-8.7,2.4,-3.5));
#1558 = VECTOR('',#1559,1.);
#1559 = DIRECTION('',(0.,0.,1.));
#1560 = PLANE('',#1561);
#1561 = AXIS2_PLACEMENT_3D('',#1562,#1563,#1564);
#1562 = CARTESIAN_POINT('',(-8.7,1.6,-3.5));
#1563 = DIRECTION('',(-1.,0.,0.));
#1564 = DIRECTION('',(0.,1.,0.));
#1565 = ADVANCED_FACE('',(#1566),#1593,.F.);
#1566 = FACE_BOUND('',#1567,.F.);
#1567 = EDGE_LOOP('',(#1568,#1576,#1577,#1578,#1579,#1587));
#1568 = ORIENTED_EDGE('',*,*,#1569,.F.);
#1569 = EDGE_CURVE('',#1546,#1570,#1572,.T.);
#1570 = VERTEX_POINT('',#1571);
#1571 = CARTESIAN_POINT('',(-8.8,2.4,-3.5));
#1572 = LINE('',#1573,#1574);
#1573 = CARTESIAN_POINT('',(-8.7,2.4,-3.5));
#1574 = VECTOR('',#1575,1.);
#1575 = DIRECTION('',(-1.,0.,0.));
#1576 = ORIENTED_EDGE('',*,*,#1555,.T.);
#1577 = ORIENTED_EDGE('',*,*,#152,.F.);
#1578 = ORIENTED_EDGE('',*,*,#830,.T.);
#1579 = ORIENTED_EDGE('',*,*,#1580,.T.);
#1580 = EDGE_CURVE('',#831,#1581,#1583,.T.);
#1581 = VERTEX_POINT('',#1582);
#1582 = CARTESIAN_POINT('',(-8.8,2.4,0.1));
#1583 = LINE('',#1584,#1585);
#1584 = CARTESIAN_POINT('',(-8.7,2.4,0.1));
#1585 = VECTOR('',#1586,1.);
#1586 = DIRECTION('',(-1.,0.,0.));
#1587 = ORIENTED_EDGE('',*,*,#1588,.F.);
#1588 = EDGE_CURVE('',#1570,#1581,#1589,.T.);
#1589 = LINE('',#1590,#1591);
#1590 = CARTESIAN_POINT('',(-8.8,2.4,-3.5));
#1591 = VECTOR('',#1592,1.);
#1592 = DIRECTION('',(0.,0.,1.));
#1593 = PLANE('',#1594);
#1594 = AXIS2_PLACEMENT_3D('',#1595,#1596,#1597);
#1595 = CARTESIAN_POINT('',(-8.7,2.4,-3.5));
#1596 = DIRECTION('',(0.,-1.,0.));
#1597 = DIRECTION('',(-1.,0.,0.));
#1598 = ADVANCED_FACE('',(#1599),#1618,.T.);
#1599 = FACE_BOUND('',#1600,.F.);
#1600 = EDGE_LOOP('',(#1601,#1609,#1616,#1617));
#1601 = ORIENTED_EDGE('',*,*,#1602,.T.);
#1602 = EDGE_CURVE('',#439,#1603,#1605,.T.);
#1603 = VERTEX_POINT('',#1604);
#1604 = CARTESIAN_POINT('',(-5.3,-6.,-0.9));
#1605 = LINE('',#1606,#1607);
#1606 = CARTESIAN_POINT('',(-5.3,-6.,0.));
#1607 = VECTOR('',#1608,1.);
#1608 = DIRECTION('',(0.,0.,-1.));
#1609 = ORIENTED_EDGE('',*,*,#1610,.T.);
#1610 = EDGE_CURVE('',#1603,#1603,#1611,.T.);
#1611 = CIRCLE('',#1612,0.7);
#1612 = AXIS2_PLACEMENT_3D('',#1613,#1614,#1615);
#1613 = CARTESIAN_POINT('',(-6.,-6.,-0.9));
#1614 = DIRECTION('',(0.,0.,-1.));
#1615 = DIRECTION('',(1.,0.,0.));
#1616 = ORIENTED_EDGE('',*,*,#1602,.F.);
#1617 = ORIENTED_EDGE('',*,*,#438,.F.);
#1618 = CYLINDRICAL_SURFACE('',#1619,0.7);
#1619 = AXIS2_PLACEMENT_3D('',#1620,#1621,#1622);
#1620 = CARTESIAN_POINT('',(-6.,-6.,0.));
#1621 = DIRECTION('',(0.,0.,1.));
#1622 = DIRECTION('',(1.,0.,0.));
#1623 = ADVANCED_FACE('',(#1624),#1643,.T.);
#1624 = FACE_BOUND('',#1625,.F.);
#1625 = EDGE_LOOP('',(#1626,#1634,#1641,#1642));
#1626 = ORIENTED_EDGE('',*,*,#1627,.T.);
#1627 = EDGE_CURVE('',#450,#1628,#1630,.T.);
#1628 = VERTEX_POINT('',#1629);
#1629 = CARTESIAN_POINT('',(6.7,6.,-0.9));
#1630 = LINE('',#1631,#1632);
#1631 = CARTESIAN_POINT('',(6.7,6.,0.));
#1632 = VECTOR('',#1633,1.);
#1633 = DIRECTION('',(0.,0.,-1.));
#1634 = ORIENTED_EDGE('',*,*,#1635,.T.);
#1635 = EDGE_CURVE('',#1628,#1628,#1636,.T.);
#1636 = CIRCLE('',#1637,0.7);
#1637 = AXIS2_PLACEMENT_3D('',#1638,#1639,#1640);
#1638 = CARTESIAN_POINT('',(6.,6.,-0.9));
#1639 = DIRECTION('',(0.,0.,-1.));
#1640 = DIRECTION('',(1.,0.,0.));
#1641 = ORIENTED_EDGE('',*,*,#1627,.F.);
#1642 = ORIENTED_EDGE('',*,*,#449,.F.);
#1643 = CYLINDRICAL_SURFACE('',#1644,0.7);
#1644 = AXIS2_PLACEMENT_3D('',#1645,#1646,#1647);
#1645 = CARTESIAN_POINT('',(6.,6.,0.));
#1646 = DIRECTION('',(0.,0.,1.));
#1647 = DIRECTION('',(1.,0.,0.));
#1648 = ADVANCED_FACE('',(#1649),#1660,.F.);
#1649 = FACE_BOUND('',#1650,.F.);
#1650 = EDGE_LOOP('',(#1651,#1652,#1653,#1654));
#1651 = ORIENTED_EDGE('',*,*,#466,.T.);
#1652 = ORIENTED_EDGE('',*,*,#906,.T.);
#1653 = ORIENTED_EDGE('',*,*,#530,.T.);
#1654 = ORIENTED_EDGE('',*,*,#1655,.T.);
#1655 = EDGE_CURVE('',#533,#467,#1656,.T.);
#1656 = LINE('',#1657,#1658);
#1657 = CARTESIAN_POINT('',(-7.752512626585,7.068198051534,-3.5));
#1658 = VECTOR('',#1659,1.);
#1659 = DIRECTION('',(-0.707106781187,-0.707106781187,0.));
#1660 = PLANE('',#1661);
#1661 = AXIS2_PLACEMENT_3D('',#1662,#1663,#1664);
#1662 = CARTESIAN_POINT('',(-5.10625,5.14375,-3.5));
#1663 = DIRECTION('',(0.,0.,1.));
#1664 = DIRECTION('',(1.,0.,0.));
#1665 = ADVANCED_FACE('',(#1666),#1672,.F.);
#1666 = FACE_BOUND('',#1667,.F.);
#1667 = EDGE_LOOP('',(#1668,#1669,#1670,#1671));
#1668 = ORIENTED_EDGE('',*,*,#549,.T.);
#1669 = ORIENTED_EDGE('',*,*,#506,.T.);
#1670 = ORIENTED_EDGE('',*,*,#476,.F.);
#1671 = ORIENTED_EDGE('',*,*,#1655,.F.);
#1672 = PLANE('',#1673);
#1673 = AXIS2_PLACEMENT_3D('',#1674,#1675,#1676);
#1674 = CARTESIAN_POINT('',(-7.752512626585,7.068198051534,-3.5));
#1675 = DIRECTION('',(0.707106781187,-0.707106781187,0.));
#1676 = DIRECTION('',(-0.707106781187,-0.707106781187,0.));
#1677 = ADVANCED_FACE('',(#1678),#1689,.F.);
#1678 = FACE_BOUND('',#1679,.F.);
#1679 = EDGE_LOOP('',(#1680,#1681,#1682,#1683));
#1680 = ORIENTED_EDGE('',*,*,#563,.T.);
#1681 = ORIENTED_EDGE('',*,*,#923,.T.);
#1682 = ORIENTED_EDGE('',*,*,#627,.T.);
#1683 = ORIENTED_EDGE('',*,*,#1684,.T.);
#1684 = EDGE_CURVE('',#630,#564,#1685,.T.);
#1685 = LINE('',#1686,#1687);
#1686 = CARTESIAN_POINT('',(-6.352512626585,8.468198051534,-3.5));
#1687 = VECTOR('',#1688,1.);
#1688 = DIRECTION('',(-0.707106781186,-0.707106781187,0.));
#1689 = PLANE('',#1690);
#1690 = AXIS2_PLACEMENT_3D('',#1691,#1692,#1693);
#1691 = CARTESIAN_POINT('',(-5.10625,5.14375,-3.5));
#1692 = DIRECTION('',(0.,0.,1.));
#1693 = DIRECTION('',(1.,0.,0.));
#1694 = ADVANCED_FACE('',(#1695),#1701,.F.);
#1695 = FACE_BOUND('',#1696,.F.);
#1696 = EDGE_LOOP('',(#1697,#1698,#1699,#1700));
#1697 = ORIENTED_EDGE('',*,*,#646,.T.);
#1698 = ORIENTED_EDGE('',*,*,#603,.T.);
#1699 = ORIENTED_EDGE('',*,*,#573,.F.);
#1700 = ORIENTED_EDGE('',*,*,#1684,.F.);
#1701 = PLANE('',#1702);
#1702 = AXIS2_PLACEMENT_3D('',#1703,#1704,#1705);
#1703 = CARTESIAN_POINT('',(-6.352512626585,8.468198051534,-3.5));
#1704 = DIRECTION('',(0.707106781187,-0.707106781186,0.));
#1705 = DIRECTION('',(-0.707106781186,-0.707106781187,0.));
#1706 = ADVANCED_FACE('',(#1707),#1718,.T.);
#1707 = FACE_BOUND('',#1708,.T.);
#1708 = EDGE_LOOP('',(#1709,#1710,#1711,#1712));
#1709 = ORIENTED_EDGE('',*,*,#958,.T.);
#1710 = ORIENTED_EDGE('',*,*,#731,.T.);
#1711 = ORIENTED_EDGE('',*,*,#1015,.T.);
#1712 = ORIENTED_EDGE('',*,*,#1713,.T.);
#1713 = EDGE_CURVE('',#1016,#951,#1714,.T.);
#1714 = LINE('',#1715,#1716);
#1715 = CARTESIAN_POINT('',(-1.6,8.8,0.1));
#1716 = VECTOR('',#1717,1.);
#1717 = DIRECTION('',(-1.,0.,0.));
#1718 = PLANE('',#1719);
#1719 = AXIS2_PLACEMENT_3D('',#1720,#1721,#1722);
#1720 = CARTESIAN_POINT('',(-5.10625,5.14375,0.1));
#1721 = DIRECTION('',(0.,0.,1.));
#1722 = DIRECTION('',(1.,0.,0.));
#1723 = ADVANCED_FACE('',(#1724),#1735,.T.);
#1724 = FACE_BOUND('',#1725,.T.);
#1725 = EDGE_LOOP('',(#1726,#1727,#1728,#1729));
#1726 = ORIENTED_EDGE('',*,*,#1055,.T.);
#1727 = ORIENTED_EDGE('',*,*,#708,.T.);
#1728 = ORIENTED_EDGE('',*,*,#1112,.T.);
#1729 = ORIENTED_EDGE('',*,*,#1730,.T.);
#1730 = EDGE_CURVE('',#1113,#1048,#1731,.T.);
#1731 = LINE('',#1732,#1733);
#1732 = CARTESIAN_POINT('',(0.4,8.8,0.1));
#1733 = VECTOR('',#1734,1.);
#1734 = DIRECTION('',(-1.,0.,0.));
#1735 = PLANE('',#1736);
#1736 = AXIS2_PLACEMENT_3D('',#1737,#1738,#1739);
#1737 = CARTESIAN_POINT('',(-5.10625,5.14375,0.1));
#1738 = DIRECTION('',(0.,0.,1.));
#1739 = DIRECTION('',(1.,0.,0.));
#1740 = ADVANCED_FACE('',(#1741),#1752,.T.);
#1741 = FACE_BOUND('',#1742,.T.);
#1742 = EDGE_LOOP('',(#1743,#1744,#1745,#1746));
#1743 = ORIENTED_EDGE('',*,*,#1152,.T.);
#1744 = ORIENTED_EDGE('',*,*,#685,.T.);
#1745 = ORIENTED_EDGE('',*,*,#1209,.T.);
#1746 = ORIENTED_EDGE('',*,*,#1747,.T.);
#1747 = EDGE_CURVE('',#1210,#1145,#1748,.T.);
#1748 = LINE('',#1749,#1750);
#1749 = CARTESIAN_POINT('',(2.4,8.8,0.1));
#1750 = VECTOR('',#1751,1.);
#1751 = DIRECTION('',(-1.,0.,0.));
#1752 = PLANE('',#1753);
#1753 = AXIS2_PLACEMENT_3D('',#1754,#1755,#1756);
#1754 = CARTESIAN_POINT('',(-5.10625,5.14375,0.1));
#1755 = DIRECTION('',(0.,0.,1.));
#1756 = DIRECTION('',(1.,0.,0.));
#1757 = ADVANCED_FACE('',(#1758),#1777,.F.);
#1758 = FACE_BOUND('',#1759,.F.);
#1759 = EDGE_LOOP('',(#1760,#1768,#1775,#1776));
#1760 = ORIENTED_EDGE('',*,*,#1761,.T.);
#1761 = EDGE_CURVE('',#804,#1762,#1764,.T.);
#1762 = VERTEX_POINT('',#1763);
#1763 = CARTESIAN_POINT('',(4.05,0.,5.3));
#1764 = LINE('',#1765,#1766);
#1765 = CARTESIAN_POINT('',(4.05,0.,5.4));
#1766 = VECTOR('',#1767,1.);
#1767 = DIRECTION('',(-0.,-0.,-1.));
#1768 = ORIENTED_EDGE('',*,*,#1769,.T.);
#1769 = EDGE_CURVE('',#1762,#1762,#1770,.T.);
#1770 = CIRCLE('',#1771,4.05);
#1771 = AXIS2_PLACEMENT_3D('',#1772,#1773,#1774);
#1772 = CARTESIAN_POINT('',(0.,0.,5.3));
#1773 = DIRECTION('',(0.,0.,1.));
#1774 = DIRECTION('',(1.,0.,0.));
#1775 = ORIENTED_EDGE('',*,*,#1761,.F.);
#1776 = ORIENTED_EDGE('',*,*,#803,.F.);
#1777 = CYLINDRICAL_SURFACE('',#1778,4.05);
#1778 = AXIS2_PLACEMENT_3D('',#1779,#1780,#1781);
#1779 = CARTESIAN_POINT('',(0.,0.,5.4));
#1780 = DIRECTION('',(0.,0.,1.));
#1781 = DIRECTION('',(1.,0.,0.));
#1782 = ADVANCED_FACE('',(#1783),#1794,.T.);
#1783 = FACE_BOUND('',#1784,.T.);
#1784 = EDGE_LOOP('',(#1785,#1791,#1792,#1793));
#1785 = ORIENTED_EDGE('',*,*,#1786,.T.);
#1786 = EDGE_CURVE('',#1387,#1322,#1787,.T.);
#1787 = LINE('',#1788,#1789);
#1788 = CARTESIAN_POINT('',(-8.8,-1.6,0.1));
#1789 = VECTOR('',#1790,1.);
#1790 = DIRECTION('',(0.,-1.,0.));
#1791 = ORIENTED_EDGE('',*,*,#1329,.T.);
#1792 = ORIENTED_EDGE('',*,*,#884,.T.);
#1793 = ORIENTED_EDGE('',*,*,#1386,.T.);
#1794 = PLANE('',#1795);
#1795 = AXIS2_PLACEMENT_3D('',#1796,#1797,#1798);
#1796 = CARTESIAN_POINT('',(-5.10625,5.14375,0.1));
#1797 = DIRECTION('',(0.,0.,1.));
#1798 = DIRECTION('',(1.,0.,0.));
#1799 = ADVANCED_FACE('',(#1800),#1811,.T.);
#1800 = FACE_BOUND('',#1801,.T.);
#1801 = EDGE_LOOP('',(#1802,#1808,#1809,#1810));
#1802 = ORIENTED_EDGE('',*,*,#1803,.T.);
#1803 = EDGE_CURVE('',#1484,#1419,#1804,.T.);
#1804 = LINE('',#1805,#1806);
#1805 = CARTESIAN_POINT('',(-8.8,0.4,0.1));
#1806 = VECTOR('',#1807,1.);
#1807 = DIRECTION('',(0.,-1.,0.));
#1808 = ORIENTED_EDGE('',*,*,#1426,.T.);
#1809 = ORIENTED_EDGE('',*,*,#861,.T.);
#1810 = ORIENTED_EDGE('',*,*,#1483,.T.);
#1811 = PLANE('',#1812);
#1812 = AXIS2_PLACEMENT_3D('',#1813,#1814,#1815);
#1813 = CARTESIAN_POINT('',(-5.10625,5.14375,0.1));
#1814 = DIRECTION('',(0.,0.,1.));
#1815 = DIRECTION('',(1.,0.,0.));
#1816 = ADVANCED_FACE('',(#1817),#1828,.T.);
#1817 = FACE_BOUND('',#1818,.T.);
#1818 = EDGE_LOOP('',(#1819,#1825,#1826,#1827));
#1819 = ORIENTED_EDGE('',*,*,#1820,.T.);
#1820 = EDGE_CURVE('',#1581,#1516,#1821,.T.);
#1821 = LINE('',#1822,#1823);
#1822 = CARTESIAN_POINT('',(-8.8,2.4,0.1));
#1823 = VECTOR('',#1824,1.);
#1824 = DIRECTION('',(0.,-1.,0.));
#1825 = ORIENTED_EDGE('',*,*,#1523,.T.);
#1826 = ORIENTED_EDGE('',*,*,#838,.T.);
#1827 = ORIENTED_EDGE('',*,*,#1580,.T.);
#1828 = PLANE('',#1829);
#1829 = AXIS2_PLACEMENT_3D('',#1830,#1831,#1832);
#1830 = CARTESIAN_POINT('',(-5.10625,5.14375,0.1));
#1831 = DIRECTION('',(0.,0.,1.));
#1832 = DIRECTION('',(1.,0.,0.));
#1833 = ADVANCED_FACE('',(#1834),#1845,.F.);
#1834 = FACE_BOUND('',#1835,.F.);
#1835 = EDGE_LOOP('',(#1836,#1837,#1838,#1844));
#1836 = ORIENTED_EDGE('',*,*,#980,.T.);
#1837 = ORIENTED_EDGE('',*,*,#1004,.T.);
#1838 = ORIENTED_EDGE('',*,*,#1839,.T.);
#1839 = EDGE_CURVE('',#1005,#941,#1840,.T.);
#1840 = LINE('',#1841,#1842);
#1841 = CARTESIAN_POINT('',(-1.6,8.8,-3.5));
#1842 = VECTOR('',#1843,1.);
#1843 = DIRECTION('',(-1.,0.,0.));
#1844 = ORIENTED_EDGE('',*,*,#940,.T.);
#1845 = PLANE('',#1846);
#1846 = AXIS2_PLACEMENT_3D('',#1847,#1848,#1849);
#1847 = CARTESIAN_POINT('',(-5.10625,5.14375,-3.5));
#1848 = DIRECTION('',(0.,0.,1.));
#1849 = DIRECTION('',(1.,0.,0.));
#1850 = ADVANCED_FACE('',(#1851),#1857,.F.);
#1851 = FACE_BOUND('',#1852,.F.);
#1852 = EDGE_LOOP('',(#1853,#1854,#1855,#1856));
#1853 = ORIENTED_EDGE('',*,*,#1023,.T.);
#1854 = ORIENTED_EDGE('',*,*,#1713,.T.);
#1855 = ORIENTED_EDGE('',*,*,#950,.F.);
#1856 = ORIENTED_EDGE('',*,*,#1839,.F.);
#1857 = PLANE('',#1858);
#1858 = AXIS2_PLACEMENT_3D('',#1859,#1860,#1861);
#1859 = CARTESIAN_POINT('',(-1.6,8.8,-3.5));
#1860 = DIRECTION('',(0.,-1.,0.));
#1861 = DIRECTION('',(-1.,0.,0.));
#1862 = ADVANCED_FACE('',(#1863),#1874,.F.);
#1863 = FACE_BOUND('',#1864,.F.);
#1864 = EDGE_LOOP('',(#1865,#1866,#1867,#1873));
#1865 = ORIENTED_EDGE('',*,*,#1077,.T.);
#1866 = ORIENTED_EDGE('',*,*,#1101,.T.);
#1867 = ORIENTED_EDGE('',*,*,#1868,.T.);
#1868 = EDGE_CURVE('',#1102,#1038,#1869,.T.);
#1869 = LINE('',#1870,#1871);
#1870 = CARTESIAN_POINT('',(0.4,8.8,-3.5));
#1871 = VECTOR('',#1872,1.);
#1872 = DIRECTION('',(-1.,0.,0.));
#1873 = ORIENTED_EDGE('',*,*,#1037,.T.);
#1874 = PLANE('',#1875);
#1875 = AXIS2_PLACEMENT_3D('',#1876,#1877,#1878);
#1876 = CARTESIAN_POINT('',(-5.10625,5.14375,-3.5));
#1877 = DIRECTION('',(0.,0.,1.));
#1878 = DIRECTION('',(1.,0.,0.));
#1879 = ADVANCED_FACE('',(#1880),#1886,.F.);
#1880 = FACE_BOUND('',#1881,.F.);
#1881 = EDGE_LOOP('',(#1882,#1883,#1884,#1885));
#1882 = ORIENTED_EDGE('',*,*,#1120,.T.);
#1883 = ORIENTED_EDGE('',*,*,#1730,.T.);
#1884 = ORIENTED_EDGE('',*,*,#1047,.F.);
#1885 = ORIENTED_EDGE('',*,*,#1868,.F.);
#1886 = PLANE('',#1887);
#1887 = AXIS2_PLACEMENT_3D('',#1888,#1889,#1890);
#1888 = CARTESIAN_POINT('',(0.4,8.8,-3.5));
#1889 = DIRECTION('',(0.,-1.,0.));
#1890 = DIRECTION('',(-1.,0.,0.));
#1891 = ADVANCED_FACE('',(#1892),#1903,.F.);
#1892 = FACE_BOUND('',#1893,.F.);
#1893 = EDGE_LOOP('',(#1894,#1895,#1896,#1902));
#1894 = ORIENTED_EDGE('',*,*,#1174,.T.);
#1895 = ORIENTED_EDGE('',*,*,#1198,.T.);
#1896 = ORIENTED_EDGE('',*,*,#1897,.T.);
#1897 = EDGE_CURVE('',#1199,#1135,#1898,.T.);
#1898 = LINE('',#1899,#1900);
#1899 = CARTESIAN_POINT('',(2.4,8.8,-3.5));
#1900 = VECTOR('',#1901,1.);
#1901 = DIRECTION('',(-1.,0.,0.));
#1902 = ORIENTED_EDGE('',*,*,#1134,.T.);
#1903 = PLANE('',#1904);
#1904 = AXIS2_PLACEMENT_3D('',#1905,#1906,#1907);
#1905 = CARTESIAN_POINT('',(-5.10625,5.14375,-3.5));
#1906 = DIRECTION('',(0.,0.,1.));
#1907 = DIRECTION('',(1.,0.,0.));
#1908 = ADVANCED_FACE('',(#1909),#1915,.F.);
#1909 = FACE_BOUND('',#1910,.F.);
#1910 = EDGE_LOOP('',(#1911,#1912,#1913,#1914));
#1911 = ORIENTED_EDGE('',*,*,#1217,.T.);
#1912 = ORIENTED_EDGE('',*,*,#1747,.T.);
#1913 = ORIENTED_EDGE('',*,*,#1144,.F.);
#1914 = ORIENTED_EDGE('',*,*,#1897,.F.);
#1915 = PLANE('',#1916);
#1916 = AXIS2_PLACEMENT_3D('',#1917,#1918,#1919);
#1917 = CARTESIAN_POINT('',(2.4,8.8,-3.5));
#1918 = DIRECTION('',(0.,-1.,0.));
#1919 = DIRECTION('',(-1.,0.,0.));
#1920 = ADVANCED_FACE('',(#1921),#1932,.F.);
#1921 = FACE_BOUND('',#1922,.F.);
#1922 = EDGE_LOOP('',(#1923,#1924,#1925,#1926));
#1923 = ORIENTED_EDGE('',*,*,#1311,.T.);
#1924 = ORIENTED_EDGE('',*,*,#1351,.T.);
#1925 = ORIENTED_EDGE('',*,*,#1375,.T.);
#1926 = ORIENTED_EDGE('',*,*,#1927,.T.);
#1927 = EDGE_CURVE('',#1376,#1312,#1928,.T.);
#1928 = LINE('',#1929,#1930);
#1929 = CARTESIAN_POINT('',(-8.8,-1.6,-3.5));
#1930 = VECTOR('',#1931,1.);
#1931 = DIRECTION('',(0.,-1.,0.));
#1932 = PLANE('',#1933);
#1933 = AXIS2_PLACEMENT_3D('',#1934,#1935,#1936);
#1934 = CARTESIAN_POINT('',(-5.10625,5.14375,-3.5));
#1935 = DIRECTION('',(0.,0.,1.));
#1936 = DIRECTION('',(1.,0.,0.));
#1937 = ADVANCED_FACE('',(#1938),#1944,.F.);
#1938 = FACE_BOUND('',#1939,.F.);
#1939 = EDGE_LOOP('',(#1940,#1941,#1942,#1943));
#1940 = ORIENTED_EDGE('',*,*,#1394,.T.);
#1941 = ORIENTED_EDGE('',*,*,#1786,.T.);
#1942 = ORIENTED_EDGE('',*,*,#1321,.F.);
#1943 = ORIENTED_EDGE('',*,*,#1927,.F.);
#1944 = PLANE('',#1945);
#1945 = AXIS2_PLACEMENT_3D('',#1946,#1947,#1948);
#1946 = CARTESIAN_POINT('',(-8.8,-1.6,-3.5));
#1947 = DIRECTION('',(1.,0.,0.));
#1948 = DIRECTION('',(0.,-1.,0.));
#1949 = ADVANCED_FACE('',(#1950),#1961,.F.);
#1950 = FACE_BOUND('',#1951,.F.);
#1951 = EDGE_LOOP('',(#1952,#1953,#1954,#1955));
#1952 = ORIENTED_EDGE('',*,*,#1408,.T.);
#1953 = ORIENTED_EDGE('',*,*,#1448,.T.);
#1954 = ORIENTED_EDGE('',*,*,#1472,.T.);
#1955 = ORIENTED_EDGE('',*,*,#1956,.T.);
#1956 = EDGE_CURVE('',#1473,#1409,#1957,.T.);
#1957 = LINE('',#1958,#1959);
#1958 = CARTESIAN_POINT('',(-8.8,0.4,-3.5));
#1959 = VECTOR('',#1960,1.);
#1960 = DIRECTION('',(0.,-1.,0.));
#1961 = PLANE('',#1962);
#1962 = AXIS2_PLACEMENT_3D('',#1963,#1964,#1965);
#1963 = CARTESIAN_POINT('',(-5.10625,5.14375,-3.5));
#1964 = DIRECTION('',(0.,0.,1.));
#1965 = DIRECTION('',(1.,0.,0.));
#1966 = ADVANCED_FACE('',(#1967),#1973,.F.);
#1967 = FACE_BOUND('',#1968,.F.);
#1968 = EDGE_LOOP('',(#1969,#1970,#1971,#1972));
#1969 = ORIENTED_EDGE('',*,*,#1491,.T.);
#1970 = ORIENTED_EDGE('',*,*,#1803,.T.);
#1971 = ORIENTED_EDGE('',*,*,#1418,.F.);
#1972 = ORIENTED_EDGE('',*,*,#1956,.F.);
#1973 = PLANE('',#1974);
#1974 = AXIS2_PLACEMENT_3D('',#1975,#1976,#1977);
#1975 = CARTESIAN_POINT('',(-8.8,0.4,-3.5));
#1976 = DIRECTION('',(1.,0.,0.));
#1977 = DIRECTION('',(0.,-1.,0.));
#1978 = ADVANCED_FACE('',(#1979),#1990,.F.);
#1979 = FACE_BOUND('',#1980,.F.);
#1980 = EDGE_LOOP('',(#1981,#1982,#1983,#1984));
#1981 = ORIENTED_EDGE('',*,*,#1505,.T.);
#1982 = ORIENTED_EDGE('',*,*,#1545,.T.);
#1983 = ORIENTED_EDGE('',*,*,#1569,.T.);
#1984 = ORIENTED_EDGE('',*,*,#1985,.T.);
#1985 = EDGE_CURVE('',#1570,#1506,#1986,.T.);
#1986 = LINE('',#1987,#1988);
#1987 = CARTESIAN_POINT('',(-8.8,2.4,-3.5));
#1988 = VECTOR('',#1989,1.);
#1989 = DIRECTION('',(0.,-1.,0.));
#1990 = PLANE('',#1991);
#1991 = AXIS2_PLACEMENT_3D('',#1992,#1993,#1994);
#1992 = CARTESIAN_POINT('',(-5.10625,5.14375,-3.5));
#1993 = DIRECTION('',(0.,0.,1.));
#1994 = DIRECTION('',(1.,0.,0.));
#1995 = ADVANCED_FACE('',(#1996),#2002,.F.);
#1996 = FACE_BOUND('',#1997,.F.);
#1997 = EDGE_LOOP('',(#1998,#1999,#2000,#2001));
#1998 = ORIENTED_EDGE('',*,*,#1588,.T.);
#1999 = ORIENTED_EDGE('',*,*,#1820,.T.);
#2000 = ORIENTED_EDGE('',*,*,#1515,.F.);
#2001 = ORIENTED_EDGE('',*,*,#1985,.F.);
#2002 = PLANE('',#2003);
#2003 = AXIS2_PLACEMENT_3D('',#2004,#2005,#2006);
#2004 = CARTESIAN_POINT('',(-8.8,2.4,-3.5));
#2005 = DIRECTION('',(1.,0.,0.));
#2006 = DIRECTION('',(0.,-1.,0.));
#2007 = ADVANCED_FACE('',(#2008),#2011,.F.);
#2008 = FACE_BOUND('',#2009,.T.);
#2009 = EDGE_LOOP('',(#2010));
#2010 = ORIENTED_EDGE('',*,*,#1610,.T.);
#2011 = PLANE('',#2012);
#2012 = AXIS2_PLACEMENT_3D('',#2013,#2014,#2015);
#2013 = CARTESIAN_POINT('',(4.9E-16,3.7E-16,-0.9));
#2014 = DIRECTION('',(0.,0.,1.));
#2015 = DIRECTION('',(1.,0.,0.));
#2016 = ADVANCED_FACE('',(#2017),#2020,.F.);
#2017 = FACE_BOUND('',#2018,.T.);
#2018 = EDGE_LOOP('',(#2019));
#2019 = ORIENTED_EDGE('',*,*,#1635,.T.);
#2020 = PLANE('',#2021);
#2021 = AXIS2_PLACEMENT_3D('',#2022,#2023,#2024);
#2022 = CARTESIAN_POINT('',(4.9E-16,3.7E-16,-0.9));
#2023 = DIRECTION('',(0.,0.,1.));
#2024 = DIRECTION('',(1.,0.,0.));
#2025 = ADVANCED_FACE('',(#2026,#2029),#2065,.T.);
#2026 = FACE_BOUND('',#2027,.T.);
#2027 = EDGE_LOOP('',(#2028));
#2028 = ORIENTED_EDGE('',*,*,#1769,.T.);
#2029 = FACE_BOUND('',#2030,.T.);
#2030 = EDGE_LOOP('',(#2031,#2042,#2050,#2059));
#2031 = ORIENTED_EDGE('',*,*,#2032,.F.);
#2032 = EDGE_CURVE('',#2033,#2035,#2037,.T.);
#2033 = VERTEX_POINT('',#2034);
#2034 = CARTESIAN_POINT('',(-1.322875655532,1.5,5.3));
#2035 = VERTEX_POINT('',#2036);
#2036 = CARTESIAN_POINT('',(-1.322875655532,-1.5,5.3));
#2037 = CIRCLE('',#2038,2.);
#2038 = AXIS2_PLACEMENT_3D('',#2039,#2040,#2041);
#2039 = CARTESIAN_POINT('',(0.,0.,5.3));
#2040 = DIRECTION('',(0.,0.,1.));
#2041 = DIRECTION('',(1.,0.,0.));
#2042 = ORIENTED_EDGE('',*,*,#2043,.F.);
#2043 = EDGE_CURVE('',#2044,#2033,#2046,.T.);
#2044 = VERTEX_POINT('',#2045);
#2045 = CARTESIAN_POINT('',(1.322875655532,1.5,5.3));
#2046 = LINE('',#2047,#2048);
#2047 = CARTESIAN_POINT('',(1.322875655532,1.5,5.3));
#2048 = VECTOR('',#2049,1.);
#2049 = DIRECTION('',(-1.,0.,0.));
#2050 = ORIENTED_EDGE('',*,*,#2051,.F.);
#2051 = EDGE_CURVE('',#2052,#2044,#2054,.T.);
#2052 = VERTEX_POINT('',#2053);
#2053 = CARTESIAN_POINT('',(1.322875655532,-1.5,5.3));
#2054 = CIRCLE('',#2055,2.);
#2055 = AXIS2_PLACEMENT_3D('',#2056,#2057,#2058);
#2056 = CARTESIAN_POINT('',(0.,0.,5.3));
#2057 = DIRECTION('',(0.,0.,1.));
#2058 = DIRECTION('',(1.,0.,0.));
#2059 = ORIENTED_EDGE('',*,*,#2060,.F.);
#2060 = EDGE_CURVE('',#2035,#2052,#2061,.T.);
#2061 = LINE('',#2062,#2063);
#2062 = CARTESIAN_POINT('',(-1.322875655532,-1.5,5.3));
#2063 = VECTOR('',#2064,1.);
#2064 = DIRECTION('',(1.,0.,0.));
#2065 = PLANE('',#2066);
#2066 = AXIS2_PLACEMENT_3D('',#2067,#2068,#2069);
#2067 = CARTESIAN_POINT('',(-1.7E-16,3.4E-16,5.3));
#2068 = DIRECTION('',(0.,0.,1.));
#2069 = DIRECTION('',(1.,0.,0.));
#2070 = ADVANCED_FACE('',(#2071),#2097,.T.);
#2071 = FACE_BOUND('',#2072,.F.);
#2072 = EDGE_LOOP('',(#2073,#2081,#2090,#2096));
#2073 = ORIENTED_EDGE('',*,*,#2074,.T.);
#2074 = EDGE_CURVE('',#2033,#2075,#2077,.T.);
#2075 = VERTEX_POINT('',#2076);
#2076 = CARTESIAN_POINT('',(-1.322875655532,1.5,8.4));
#2077 = LINE('',#2078,#2079);
#2078 = CARTESIAN_POINT('',(-1.322875655532,1.5,5.3));
#2079 = VECTOR('',#2080,1.);
#2080 = DIRECTION('',(0.,0.,1.));
#2081 = ORIENTED_EDGE('',*,*,#2082,.T.);
#2082 = EDGE_CURVE('',#2075,#2083,#2085,.T.);
#2083 = VERTEX_POINT('',#2084);
#2084 = CARTESIAN_POINT('',(-1.322875655532,-1.5,8.4));
#2085 = CIRCLE('',#2086,2.);
#2086 = AXIS2_PLACEMENT_3D('',#2087,#2088,#2089);
#2087 = CARTESIAN_POINT('',(0.,0.,8.4));
#2088 = DIRECTION('',(0.,0.,1.));
#2089 = DIRECTION('',(1.,0.,0.));
#2090 = ORIENTED_EDGE('',*,*,#2091,.F.);
#2091 = EDGE_CURVE('',#2035,#2083,#2092,.T.);
#2092 = LINE('',#2093,#2094);
#2093 = CARTESIAN_POINT('',(-1.322875655532,-1.5,5.3));
#2094 = VECTOR('',#2095,1.);
#2095 = DIRECTION('',(0.,0.,1.));
#2096 = ORIENTED_EDGE('',*,*,#2032,.F.);
#2097 = CYLINDRICAL_SURFACE('',#2098,2.);
#2098 = AXIS2_PLACEMENT_3D('',#2099,#2100,#2101);
#2099 = CARTESIAN_POINT('',(0.,0.,5.3));
#2100 = DIRECTION('',(-0.,-0.,-1.));
#2101 = DIRECTION('',(1.,0.,0.));
#2102 = ADVANCED_FACE('',(#2103),#2121,.F.);
#2103 = FACE_BOUND('',#2104,.F.);
#2104 = EDGE_LOOP('',(#2105,#2106,#2114,#2120));
#2105 = ORIENTED_EDGE('',*,*,#2091,.T.);
#2106 = ORIENTED_EDGE('',*,*,#2107,.T.);
#2107 = EDGE_CURVE('',#2083,#2108,#2110,.T.);
#2108 = VERTEX_POINT('',#2109);
#2109 = CARTESIAN_POINT('',(1.322875655532,-1.5,8.4));
#2110 = LINE('',#2111,#2112);
#2111 = CARTESIAN_POINT('',(-1.322875655532,-1.5,8.4));
#2112 = VECTOR('',#2113,1.);
#2113 = DIRECTION('',(1.,0.,0.));
#2114 = ORIENTED_EDGE('',*,*,#2115,.F.);
#2115 = EDGE_CURVE('',#2052,#2108,#2116,.T.);
#2116 = LINE('',#2117,#2118);
#2117 = CARTESIAN_POINT('',(1.322875655532,-1.5,5.3));
#2118 = VECTOR('',#2119,1.);
#2119 = DIRECTION('',(0.,0.,1.));
#2120 = ORIENTED_EDGE('',*,*,#2060,.F.);
#2121 = PLANE('',#2122);
#2122 = AXIS2_PLACEMENT_3D('',#2123,#2124,#2125);
#2123 = CARTESIAN_POINT('',(-1.322875655532,-1.5,5.3));
#2124 = DIRECTION('',(0.,1.,0.));
#2125 = DIRECTION('',(1.,0.,0.));
#2126 = ADVANCED_FACE('',(#2127),#2146,.T.);
#2127 = FACE_BOUND('',#2128,.F.);
#2128 = EDGE_LOOP('',(#2129,#2130,#2139,#2145));
#2129 = ORIENTED_EDGE('',*,*,#2115,.T.);
#2130 = ORIENTED_EDGE('',*,*,#2131,.T.);
#2131 = EDGE_CURVE('',#2108,#2132,#2134,.T.);
#2132 = VERTEX_POINT('',#2133);
#2133 = CARTESIAN_POINT('',(1.322875655532,1.5,8.4));
#2134 = CIRCLE('',#2135,2.);
#2135 = AXIS2_PLACEMENT_3D('',#2136,#2137,#2138);
#2136 = CARTESIAN_POINT('',(0.,0.,8.4));
#2137 = DIRECTION('',(0.,0.,1.));
#2138 = DIRECTION('',(1.,0.,0.));
#2139 = ORIENTED_EDGE('',*,*,#2140,.F.);
#2140 = EDGE_CURVE('',#2044,#2132,#2141,.T.);
#2141 = LINE('',#2142,#2143);
#2142 = CARTESIAN_POINT('',(1.322875655532,1.5,5.3));
#2143 = VECTOR('',#2144,1.);
#2144 = DIRECTION('',(0.,0.,1.));
#2145 = ORIENTED_EDGE('',*,*,#2051,.F.);
#2146 = CYLINDRICAL_SURFACE('',#2147,2.);
#2147 = AXIS2_PLACEMENT_3D('',#2148,#2149,#2150);
#2148 = CARTESIAN_POINT('',(0.,0.,5.3));
#2149 = DIRECTION('',(-0.,-0.,-1.));
#2150 = DIRECTION('',(1.,0.,0.));
#2151 = ADVANCED_FACE('',(#2152),#2163,.F.);
#2152 = FACE_BOUND('',#2153,.F.);
#2153 = EDGE_LOOP('',(#2154,#2155,#2161,#2162));
#2154 = ORIENTED_EDGE('',*,*,#2140,.T.);
#2155 = ORIENTED_EDGE('',*,*,#2156,.T.);
#2156 = EDGE_CURVE('',#2132,#2075,#2157,.T.);
#2157 = LINE('',#2158,#2159);
#2158 = CARTESIAN_POINT('',(1.322875655532,1.5,8.4));
#2159 = VECTOR('',#2160,1.);
#2160 = DIRECTION('',(-1.,0.,0.));
#2161 = ORIENTED_EDGE('',*,*,#2074,.F.);
#2162 = ORIENTED_EDGE('',*,*,#2043,.F.);
#2163 = PLANE('',#2164);
#2164 = AXIS2_PLACEMENT_3D('',#2165,#2166,#2167);
#2165 = CARTESIAN_POINT('',(1.322875655532,1.5,5.3));
#2166 = DIRECTION('',(0.,-1.,0.));
#2167 = DIRECTION('',(-1.,0.,0.));
#2168 = ADVANCED_FACE('',(#2169,#2175),#2186,.T.);
#2169 = FACE_BOUND('',#2170,.T.);
#2170 = EDGE_LOOP('',(#2171,#2172,#2173,#2174));
#2171 = ORIENTED_EDGE('',*,*,#2082,.T.);
#2172 = ORIENTED_EDGE('',*,*,#2107,.T.);
#2173 = ORIENTED_EDGE('',*,*,#2131,.T.);
#2174 = ORIENTED_EDGE('',*,*,#2156,.T.);
#2175 = FACE_BOUND('',#2176,.T.);
#2176 = EDGE_LOOP('',(#2177));
#2177 = ORIENTED_EDGE('',*,*,#2178,.F.);
#2178 = EDGE_CURVE('',#2179,#2179,#2181,.T.);
#2179 = VERTEX_POINT('',#2180);
#2180 = CARTESIAN_POINT('',(1.375,0.,8.4));
#2181 = CIRCLE('',#2182,1.375);
#2182 = AXIS2_PLACEMENT_3D('',#2183,#2184,#2185);
#2183 = CARTESIAN_POINT('',(0.,0.,8.4));
#2184 = DIRECTION('',(0.,0.,1.));
#2185 = DIRECTION('',(1.,0.,0.));
#2186 = PLANE('',#2187);
#2187 = AXIS2_PLACEMENT_3D('',#2188,#2189,#2190);
#2188 = CARTESIAN_POINT('',(6.E-17,1.5E-16,8.4));
#2189 = DIRECTION('',(0.,0.,1.));
#2190 = DIRECTION('',(1.,0.,0.));
#2191 = ADVANCED_FACE('',(#2192),#2211,.T.);
#2192 = FACE_BOUND('',#2193,.F.);
#2193 = EDGE_LOOP('',(#2194,#2202,#2209,#2210));
#2194 = ORIENTED_EDGE('',*,*,#2195,.T.);
#2195 = EDGE_CURVE('',#2179,#2196,#2198,.T.);
#2196 = VERTEX_POINT('',#2197);
#2197 = CARTESIAN_POINT('',(1.375,0.,9.));
#2198 = LINE('',#2199,#2200);
#2199 = CARTESIAN_POINT('',(1.375,0.,8.4));
#2200 = VECTOR('',#2201,1.);
#2201 = DIRECTION('',(0.,0.,1.));
#2202 = ORIENTED_EDGE('',*,*,#2203,.T.);
#2203 = EDGE_CURVE('',#2196,#2196,#2204,.T.);
#2204 = CIRCLE('',#2205,1.375);
#2205 = AXIS2_PLACEMENT_3D('',#2206,#2207,#2208);
#2206 = CARTESIAN_POINT('',(0.,0.,9.));
#2207 = DIRECTION('',(0.,0.,1.));
#2208 = DIRECTION('',(1.,0.,0.));
#2209 = ORIENTED_EDGE('',*,*,#2195,.F.);
#2210 = ORIENTED_EDGE('',*,*,#2178,.F.);
#2211 = CYLINDRICAL_SURFACE('',#2212,1.375);
#2212 = AXIS2_PLACEMENT_3D('',#2213,#2214,#2215);
#2213 = CARTESIAN_POINT('',(0.,0.,8.4));
#2214 = DIRECTION('',(-0.,-0.,-1.));
#2215 = DIRECTION('',(1.,0.,0.));
#2216 = ADVANCED_FACE('',(#2217,#2253),#2256,.F.);
#2217 = FACE_BOUND('',#2218,.F.);
#2218 = EDGE_LOOP('',(#2219,#2230,#2238,#2247));
#2219 = ORIENTED_EDGE('',*,*,#2220,.T.);
#2220 = EDGE_CURVE('',#2221,#2223,#2225,.T.);
#2221 = VERTEX_POINT('',#2222);
#2222 = CARTESIAN_POINT('',(1.322875655532,-1.5,9.));
#2223 = VERTEX_POINT('',#2224);
#2224 = CARTESIAN_POINT('',(1.322875655532,1.5,9.));
#2225 = CIRCLE('',#2226,2.);
#2226 = AXIS2_PLACEMENT_3D('',#2227,#2228,#2229);
#2227 = CARTESIAN_POINT('',(0.,0.,9.));
#2228 = DIRECTION('',(0.,0.,1.));
#2229 = DIRECTION('',(1.,0.,0.));
#2230 = ORIENTED_EDGE('',*,*,#2231,.T.);
#2231 = EDGE_CURVE('',#2223,#2232,#2234,.T.);
#2232 = VERTEX_POINT('',#2233);
#2233 = CARTESIAN_POINT('',(-1.322875655532,1.5,9.));
#2234 = LINE('',#2235,#2236);
#2235 = CARTESIAN_POINT('',(1.322875655532,1.5,9.));
#2236 = VECTOR('',#2237,1.);
#2237 = DIRECTION('',(-1.,0.,0.));
#2238 = ORIENTED_EDGE('',*,*,#2239,.T.);
#2239 = EDGE_CURVE('',#2232,#2240,#2242,.T.);
#2240 = VERTEX_POINT('',#2241);
#2241 = CARTESIAN_POINT('',(-1.322875655532,-1.5,9.));
#2242 = CIRCLE('',#2243,2.);
#2243 = AXIS2_PLACEMENT_3D('',#2244,#2245,#2246);
#2244 = CARTESIAN_POINT('',(0.,0.,9.));
#2245 = DIRECTION('',(0.,0.,1.));
#2246 = DIRECTION('',(1.,0.,0.));
#2247 = ORIENTED_EDGE('',*,*,#2248,.T.);
#2248 = EDGE_CURVE('',#2240,#2221,#2249,.T.);
#2249 = LINE('',#2250,#2251);
#2250 = CARTESIAN_POINT('',(-1.322875655532,-1.5,9.));
#2251 = VECTOR('',#2252,1.);
#2252 = DIRECTION('',(1.,0.,0.));
#2253 = FACE_BOUND('',#2254,.F.);
#2254 = EDGE_LOOP('',(#2255));
#2255 = ORIENTED_EDGE('',*,*,#2203,.F.);
#2256 = PLANE('',#2257);
#2257 = AXIS2_PLACEMENT_3D('',#2258,#2259,#2260);
#2258 = CARTESIAN_POINT('',(-6.E-17,5.6E-16,9.));
#2259 = DIRECTION('',(0.,0.,1.));
#2260 = DIRECTION('',(1.,0.,0.));
#2261 = ADVANCED_FACE('',(#2262),#2288,.T.);
#2262 = FACE_BOUND('',#2263,.F.);
#2263 = EDGE_LOOP('',(#2264,#2272,#2281,#2287));
#2264 = ORIENTED_EDGE('',*,*,#2265,.T.);
#2265 = EDGE_CURVE('',#2221,#2266,#2268,.T.);
#2266 = VERTEX_POINT('',#2267);
#2267 = CARTESIAN_POINT('',(1.322875655532,-1.5,12.));
#2268 = LINE('',#2269,#2270);
#2269 = CARTESIAN_POINT('',(1.322875655532,-1.5,9.));
#2270 = VECTOR('',#2271,1.);
#2271 = DIRECTION('',(0.,0.,1.));
#2272 = ORIENTED_EDGE('',*,*,#2273,.T.);
#2273 = EDGE_CURVE('',#2266,#2274,#2276,.T.);
#2274 = VERTEX_POINT('',#2275);
#2275 = CARTESIAN_POINT('',(1.322875655532,1.5,12.));
#2276 = CIRCLE('',#2277,2.);
#2277 = AXIS2_PLACEMENT_3D('',#2278,#2279,#2280);
#2278 = CARTESIAN_POINT('',(0.,0.,12.));
#2279 = DIRECTION('',(0.,0.,1.));
#2280 = DIRECTION('',(1.,0.,0.));
#2281 = ORIENTED_EDGE('',*,*,#2282,.F.);
#2282 = EDGE_CURVE('',#2223,#2274,#2283,.T.);
#2283 = LINE('',#2284,#2285);
#2284 = CARTESIAN_POINT('',(1.322875655532,1.5,9.));
#2285 = VECTOR('',#2286,1.);
#2286 = DIRECTION('',(0.,0.,1.));
#2287 = ORIENTED_EDGE('',*,*,#2220,.F.);
#2288 = CYLINDRICAL_SURFACE('',#2289,2.);
#2289 = AXIS2_PLACEMENT_3D('',#2290,#2291,#2292);
#2290 = CARTESIAN_POINT('',(0.,0.,9.));
#2291 = DIRECTION('',(-0.,-0.,-1.));
#2292 = DIRECTION('',(1.,0.,0.));
#2293 = ADVANCED_FACE('',(#2294),#2312,.F.);
#2294 = FACE_BOUND('',#2295,.F.);
#2295 = EDGE_LOOP('',(#2296,#2304,#2310,#2311));
#2296 = ORIENTED_EDGE('',*,*,#2297,.T.);
#2297 = EDGE_CURVE('',#2240,#2298,#2300,.T.);
#2298 = VERTEX_POINT('',#2299);
#2299 = CARTESIAN_POINT('',(-1.322875655532,-1.5,12.));
#2300 = LINE('',#2301,#2302);
#2301 = CARTESIAN_POINT('',(-1.322875655532,-1.5,9.));
#2302 = VECTOR('',#2303,1.);
#2303 = DIRECTION('',(0.,0.,1.));
#2304 = ORIENTED_EDGE('',*,*,#2305,.T.);
#2305 = EDGE_CURVE('',#2298,#2266,#2306,.T.);
#2306 = LINE('',#2307,#2308);
#2307 = CARTESIAN_POINT('',(-1.322875655532,-1.5,12.));
#2308 = VECTOR('',#2309,1.);
#2309 = DIRECTION('',(1.,0.,0.));
#2310 = ORIENTED_EDGE('',*,*,#2265,.F.);
#2311 = ORIENTED_EDGE('',*,*,#2248,.F.);
#2312 = PLANE('',#2313);
#2313 = AXIS2_PLACEMENT_3D('',#2314,#2315,#2316);
#2314 = CARTESIAN_POINT('',(-1.322875655532,-1.5,9.));
#2315 = DIRECTION('',(0.,1.,0.));
#2316 = DIRECTION('',(1.,0.,0.));
#2317 = ADVANCED_FACE('',(#2318),#2336,.F.);
#2318 = FACE_BOUND('',#2319,.F.);
#2319 = EDGE_LOOP('',(#2320,#2321,#2329,#2335));
#2320 = ORIENTED_EDGE('',*,*,#2282,.T.);
#2321 = ORIENTED_EDGE('',*,*,#2322,.T.);
#2322 = EDGE_CURVE('',#2274,#2323,#2325,.T.);
#2323 = VERTEX_POINT('',#2324);
#2324 = CARTESIAN_POINT('',(-1.322875655532,1.5,12.));
#2325 = LINE('',#2326,#2327);
#2326 = CARTESIAN_POINT('',(1.322875655532,1.5,12.));
#2327 = VECTOR('',#2328,1.);
#2328 = DIRECTION('',(-1.,0.,0.));
#2329 = ORIENTED_EDGE('',*,*,#2330,.F.);
#2330 = EDGE_CURVE('',#2232,#2323,#2331,.T.);
#2331 = LINE('',#2332,#2333);
#2332 = CARTESIAN_POINT('',(-1.322875655532,1.5,9.));
#2333 = VECTOR('',#2334,1.);
#2334 = DIRECTION('',(0.,0.,1.));
#2335 = ORIENTED_EDGE('',*,*,#2231,.F.);
#2336 = PLANE('',#2337);
#2337 = AXIS2_PLACEMENT_3D('',#2338,#2339,#2340);
#2338 = CARTESIAN_POINT('',(1.322875655532,1.5,9.));
#2339 = DIRECTION('',(0.,-1.,0.));
#2340 = DIRECTION('',(-1.,0.,0.));
#2341 = ADVANCED_FACE('',(#2342),#2354,.T.);
#2342 = FACE_BOUND('',#2343,.F.);
#2343 = EDGE_LOOP('',(#2344,#2345,#2352,#2353));
#2344 = ORIENTED_EDGE('',*,*,#2330,.T.);
#2345 = ORIENTED_EDGE('',*,*,#2346,.T.);
#2346 = EDGE_CURVE('',#2323,#2298,#2347,.T.);
#2347 = CIRCLE('',#2348,2.);
#2348 = AXIS2_PLACEMENT_3D('',#2349,#2350,#2351);
#2349 = CARTESIAN_POINT('',(0.,0.,12.));
#2350 = DIRECTION('',(0.,0.,1.));
#2351 = DIRECTION('',(1.,0.,0.));
#2352 = ORIENTED_EDGE('',*,*,#2297,.F.);
#2353 = ORIENTED_EDGE('',*,*,#2239,.F.);
#2354 = CYLINDRICAL_SURFACE('',#2355,2.);
#2355 = AXIS2_PLACEMENT_3D('',#2356,#2357,#2358);
#2356 = CARTESIAN_POINT('',(0.,0.,9.));
#2357 = DIRECTION('',(-0.,-0.,-1.));
#2358 = DIRECTION('',(1.,0.,0.));
#2359 = ADVANCED_FACE('',(#2360,#2366),#2377,.T.);
#2360 = FACE_BOUND('',#2361,.T.);
#2361 = EDGE_LOOP('',(#2362,#2363,#2364,#2365));
#2362 = ORIENTED_EDGE('',*,*,#2273,.T.);
#2363 = ORIENTED_EDGE('',*,*,#2322,.T.);
#2364 = ORIENTED_EDGE('',*,*,#2346,.T.);
#2365 = ORIENTED_EDGE('',*,*,#2305,.T.);
#2366 = FACE_BOUND('',#2367,.T.);
#2367 = EDGE_LOOP('',(#2368));
#2368 = ORIENTED_EDGE('',*,*,#2369,.F.);
#2369 = EDGE_CURVE('',#2370,#2370,#2372,.T.);
#2370 = VERTEX_POINT('',#2371);
#2371 = CARTESIAN_POINT('',(1.1,0.,12.));
#2372 = CIRCLE('',#2373,1.1);
#2373 = AXIS2_PLACEMENT_3D('',#2374,#2375,#2376);
#2374 = CARTESIAN_POINT('',(0.,0.,12.));
#2375 = DIRECTION('',(0.,0.,1.));
#2376 = DIRECTION('',(1.,0.,0.));
#2377 = PLANE('',#2378);
#2378 = AXIS2_PLACEMENT_3D('',#2379,#2380,#2381);
#2379 = CARTESIAN_POINT('',(-6.E-17,5.6E-16,12.));
#2380 = DIRECTION('',(0.,0.,1.));
#2381 = DIRECTION('',(1.,0.,0.));
#2382 = ADVANCED_FACE('',(#2383),#2402,.F.);
#2383 = FACE_BOUND('',#2384,.F.);
#2384 = EDGE_LOOP('',(#2385,#2393,#2400,#2401));
#2385 = ORIENTED_EDGE('',*,*,#2386,.T.);
#2386 = EDGE_CURVE('',#2370,#2387,#2389,.T.);
#2387 = VERTEX_POINT('',#2388);
#2388 = CARTESIAN_POINT('',(1.1,0.,10.));
#2389 = LINE('',#2390,#2391);
#2390 = CARTESIAN_POINT('',(1.1,0.,12.));
#2391 = VECTOR('',#2392,1.);
#2392 = DIRECTION('',(-0.,-0.,-1.));
#2393 = ORIENTED_EDGE('',*,*,#2394,.T.);
#2394 = EDGE_CURVE('',#2387,#2387,#2395,.T.);
#2395 = CIRCLE('',#2396,1.1);
#2396 = AXIS2_PLACEMENT_3D('',#2397,#2398,#2399);
#2397 = CARTESIAN_POINT('',(0.,0.,10.));
#2398 = DIRECTION('',(0.,0.,1.));
#2399 = DIRECTION('',(1.,0.,0.));
#2400 = ORIENTED_EDGE('',*,*,#2386,.F.);
#2401 = ORIENTED_EDGE('',*,*,#2369,.F.);
#2402 = CYLINDRICAL_SURFACE('',#2403,1.1);
#2403 = AXIS2_PLACEMENT_3D('',#2404,#2405,#2406);
#2404 = CARTESIAN_POINT('',(0.,0.,12.));
#2405 = DIRECTION('',(0.,0.,1.));
#2406 = DIRECTION('',(1.,0.,0.));
#2407 = ADVANCED_FACE('',(#2408),#2411,.T.);
#2408 = FACE_BOUND('',#2409,.T.);
#2409 = EDGE_LOOP('',(#2410));
#2410 = ORIENTED_EDGE('',*,*,#2394,.T.);
#2411 = PLANE('',#2412);
#2412 = AXIS2_PLACEMENT_3D('',#2413,#2414,#2415);
#2413 = CARTESIAN_POINT('',(-4.E-17,3.E-17,10.));
#2414 = DIRECTION('',(0.,0.,1.));
#2415 = DIRECTION('',(1.,0.,0.));
#2416 = ( GEOMETRIC_REPRESENTATION_CONTEXT(3) 
GLOBAL_UNCERTAINTY_ASSIGNED_CONTEXT((#2420)) 
GLOBAL_UNIT_ASSIGNED_CONTEXT((#2417,#2418,#2419)) REPRESENTATION_CONTEXT
('Context #1','3D Context with UNIT and UNCERTAINTY') );
#2417 = ( LENGTH_UNIT() NAMED_UNIT(*) SI_UNIT(.MILLI.,.METRE.) );
#2418 = ( NAMED_UNIT(*) PLANE_ANGLE_UNIT() SI_UNIT($,.RADIAN.) );
#2419 = ( NAMED_UNIT(*) SI_UNIT($,.STERADIAN.) SOLID_ANGLE_UNIT() );
#2420 = UNCERTAINTY_MEASURE_WITH_UNIT(LENGTH_MEASURE(5.E-06),#2417,
  'distance_accuracy_value','confusion accuracy');
#2421 = CONTEXT_DEPENDENT_SHAPE_REPRESENTATION(#2422,#2424);
#2422 = ( REPRESENTATION_RELATIONSHIP('','',#32,#10) 
REPRESENTATION_RELATIONSHIP_WITH_TRANSFORMATION(#2423) 
SHAPE_REPRESENTATION_RELATIONSHIP() );
#2423 = ITEM_DEFINED_TRANSFORMATION('','',#11,#15);
#2424 = PRODUCT_DEFINITION_SHAPE('Placement','Placement of an item',
  #2425);
#2425 = NEXT_ASSEMBLY_USAGE_OCCURRENCE('1','Body003','',#5,#27,$);
#2426 = PRODUCT_RELATED_PRODUCT_CATEGORY('part',$,(#29));
#2427 = MECHANICAL_DESIGN_GEOMETRIC_PRESENTATION_REPRESENTATION('',(
    #2428),#2416);
#2428 = STYLED_ITEM('color',(#2429),#33);
#2429 = PRESENTATION_STYLE_ASSIGNMENT((#2430,#2436));
#2430 = SURFACE_STYLE_USAGE(.BOTH.,#2431);
#2431 = SURFACE_SIDE_STYLE('',(#2432));
#2432 = SURFACE_STYLE_FILL_AREA(#2433);
#2433 = FILL_AREA_STYLE('',(#2434));
#2434 = FILL_AREA_STYLE_COLOUR('',#2435);
#2435 = COLOUR_RGB('',0.678431390124,0.709803936702,0.741176476869);
#2436 = CURVE_STYLE('',#2437,POSITIVE_LENGTH_MEASURE(0.1),#2438);
#2437 = DRAUGHTING_PRE_DEFINED_CURVE_FONT('continuous');
#2438 = COLOUR_RGB('',9.803921802644E-02,9.803921802644E-02,
  9.803921802644E-02);
ENDSEC;
END-ISO-10303-21;
